<svg xmlns="http://www.w3.org/2000/svg" viewBox="0 0 89.39 170.13"><defs><style>.cls-1{fill:#3e4949;}.cls-2{fill:#2f3838;}.cls-3{fill:#838889;}.cls-4{fill:#bf8f08;}.cls-5{fill:#edbb1b;}.cls-6{fill:#dbae86;}.cls-7{fill:#ce9e72;}.cls-8{fill:#e8bd92;}.cls-9{fill:none;stroke:#c47c69;stroke-linecap:round;stroke-linejoin:round;}.cls-10{fill:#d69274;}.cls-11{fill:#eaae78;opacity:0.72;}</style></defs><title>Asset 6</title><g id="Layer_2" data-name="Layer 2"><g id="OBJECT"><path class="cls-1" d="M79.5,78.38a2.74,2.74,0,0,0-.88-.41A6.72,6.72,0,0,1,77,77c-.31-.22-.64-.39-1-.6-.11-.08-.22-.23-.36-.11a6,6,0,0,0-.29.65,2.87,2.87,0,0,1-.71.85,1.38,1.38,0,0,1-1.06.38,14,14,0,0,1,.63-3.07c-.77.76-1.29,2.06-2.1,2-1-.13-.89-1.87-1.16-2.91-.23.54-.65,1.65-1,2.7a1.6,1.6,0,0,1-.38-.77,2.87,2.87,0,0,1,0-1.1,6,6,0,0,0,.17-.69c0-.19-.22-.13-.35-.13-.38,0-.75-.09-1.13-.1a6.73,6.73,0,0,1-1.85-.24,2.74,2.74,0,0,0-.95-.21,4.57,4.57,0,0,0-3.6,3,.94.94,0,0,1,1.21.1c.3.35.27,1.42.62,1.65.51-.93,1.61-1.5,2-.8a7,7,0,0,1,.24,2.71c.46-.49.76-1,1.29-1.21.95-.36,1.63.13,2.37.48a9.43,9.43,0,0,0,.82,3.39c.33-.53,1.39-1.34,2.18-2.37.82.18,1.67.19,2.22,1.07a3.92,3.92,0,0,1,.29,1.74,7,7,0,0,1,1.84-2c.72-.33,1.24.79,1.08,1.84.42,0,1-.84,1.5-.93a.94.94,0,0,1,1,.66A4.57,4.57,0,0,0,79.5,78.38Z"/><path class="cls-1" d="M19.49,87.94a3.86,3.86,0,0,0-1.27.51,9.47,9.47,0,0,1-2.51.76c-.53.11-1,.28-1.54.4-.18,0-.45,0-.46.27a8.36,8.36,0,0,0,.39.92,4,4,0,0,1,.19,1.54,1.94,1.94,0,0,1-.63,1.46,19.7,19.7,0,0,1-2.55-3.6c0,1.52.87,3.31,0,4C10,95.2,8.33,93.37,7,92.64c.33.76,1.07,2.26,1.84,3.6a2.25,2.25,0,0,1-1.16-.35,4,4,0,0,1-1.18-1A8.37,8.37,0,0,0,5.94,94c-.23-.14-.34.1-.48.23-.39.37-.81.68-1.19,1.06a9.47,9.47,0,0,1-2,1.67,3.86,3.86,0,0,0-1.13.77,6.44,6.44,0,0,0-.42,6.56A1.32,1.32,0,0,1,2,103.18c.66,0,1.72,1.09,2.3,1-.46-1.42,0-3.1,1.08-2.81s2.12,1.5,3,2.36a5.52,5.52,0,0,1,0-2.49c.55-1.32,1.7-1.55,2.78-2a13.28,13.28,0,0,0,4.28,2.43c-.22-.86,0-2.72-.34-4.53,1-.67,1.8-1.54,3.23-1.25.79.16,1.33.8,2.07,1.38-.22-1.22-.6-2.9-.29-3.82s2-.51,2.94.66c.43-.4.14-1.88.49-2.44a1.32,1.32,0,0,1,1.66-.42A6.44,6.44,0,0,0,19.49,87.94Z"/><path class="cls-2" d="M12.12,135.27c2.27,2.8,6.89,2.67,10.29,2.22a25.87,25.87,0,0,1-.5,8.33c-.37,1.94-1.88,3.83-2,5.69,6.3-3.24,11.51-6.48,16.4-11.17,1.05,2.08.21,5.84.2,8.13a17.32,17.32,0,0,0,.32,5c3.12-.74,7.29-5,8.73-7.33a5.2,5.2,0,0,0,1.1-3.1c2.33,2.27,3.64,5.19,5.86,7.58,1.28,1.39,3.15,3.28,3.8,5,.31-2.1,1-4.21,1.32-6.33.31-1.82,0-3.91.61-5.68.4-1.16-.33-1.11,1.15-1.06a7.82,7.82,0,0,1,2.05.79,38.2,38.2,0,0,0,10,2.69c1.7.15,3.56,0,5.13.44-1.49-2.69-7.05-5.77-6.77-9.13a14.89,14.89,0,0,0,9-.77c.61-.28,4-1.52,4.07-2.15.21-1.17-4.49-1.34-5.38-1.58-4.76-1.28-11.21-3.45-13.69-7.39s-2.3-8.64-3.42-12.79c-.83-3.07-.4-9.28-4.79-10-4.84-.77-10.38.45-15.12,1.2-2.15.34-3.84.27-4.63,1.65-.41.71-.3,2.37-.48,3.16A32.52,32.52,0,0,1,32.65,116c-1.51,3-2.39,6-3.69,9-1,2.28-.88,3-3.11,4.2A61.92,61.92,0,0,1,12.12,135.27Z"/><path class="cls-3" d="M42.72,115.89c0,6.57-1,12.87-1.7,19.38s-1.2,13.12-2.42,19.62c-.46,2.44.22,5.23-.47,7.59-1.52,0-3.91,1-4.79-.12-1.15-1.52-.52-5.57-.58-7.43-.15-4.85-1-9.65-1-14.52s0-10-.12-15-1.16-10.89.28-15.59c2.32-.07,6.49-.85,8,1.41C40.81,112.49,40.34,114.31,42.72,115.89Z"/><path class="cls-1" d="M29.76,156.43c2.6,0,5.24-.11,7.84,0,1.09,0,2.12-.18,2.69.69s0,3.09-.08,3.91c-.21,2.66-.44,5.31-.65,7.93-3.41.44-6.88.81-10.31,1-1.25.05-3.93.65-4.64-.37s.11-3,.94-3.81c1.76-1.61,4-1.37,6.22-1.4.19-1.29-.72-2.9-.92-4.2A9.55,9.55,0,0,0,29.76,156.43Z"/><path class="cls-3" d="M46.91,115.89c0,6.57,1,12.87,1.7,19.38s1.2,13.12,2.42,19.62c.46,2.44-.23,5.23.47,7.59,1.52,0,3.91,1,4.79-.12,1.15-1.52.52-5.57.58-7.43.15-4.85,1-9.65,1-14.52s0-10,.12-15,1.16-10.89-.28-15.59c-2.32-.07-6.49-.85-8,1.41C48.82,112.49,49.28,114.31,46.91,115.89Z"/><path class="cls-1" d="M59.87,156.43c-2.6,0-5.24-.11-7.84,0-1.09,0-2.12-.18-2.69.69s0,3.09.08,3.91c.21,2.66.44,5.31.65,7.93,3.41.44,6.88.81,10.31,1,1.25.05,3.93.65,4.64-.37s-.11-3-.94-3.81c-1.76-1.61-4-1.37-6.22-1.4-.19-1.29.72-2.9.92-4.2A9.55,9.55,0,0,1,59.87,156.43Z"/><path class="cls-1" d="M38,111.57c2.12,1.08,2.49,3.64,4.71,4.34a15.19,15.19,0,0,0,4-.09c.56-.23.63-.82,1-1.22.64-.75,1.47-1.4,2.19-2.1s1.41-1.6,2.14-2.43c1-1.18,2.64-1.9,3.67-3-1.6-.56-4.49-.19-6.2-.12-3,.12-6,.6-9,.73a27.15,27.15,0,0,0-5.29.46,3.42,3.42,0,0,0,.8,1.82c.16.26,0,.68.26.91C36.78,111.32,38.38,111.61,38,111.57Z"/><path class="cls-4" d="M40.55,103.24c3.13.07,6.15-.81,9.25-.57.32,1.81,1,3.9.9,5.77-4.25.75-8.79-.33-13,.83C37.35,107.56,38,105.81,40.55,103.24Z"/><path class="cls-5" d="M37.31,102.64c3.13.05,9.39-.16,12.49,0,.32,1.41,1,3,.9,4.49-4.25.59-8.79-.26-13,.65C37.35,106.47,34.81,104.64,37.31,102.64Z"/><path class="cls-3" d="M42,75.18c-5.11.14-13.38,4.92-14.36,6.44-2.6,4,3.27,6.74,2.9,11.24-.21,2.58-.76,7.77.7,10.23.59,1,.76.94,2.27,1.09a61.35,61.35,0,0,0,12.52-.11c3.34-.36,6.66-.4,10-.69.53,0,1.92,0,2.36-.4,1.64-1.42.05-6.53-.34-8.52-.65-3.33-1.25-4.82-1.82-8.14-.41-2.4.21-7.74-3.54-9.19-1.35-.52-7.68-2.32-8.81-1.43"/><path class="cls-6" d="M39.36,72.07c1.49,1.18.4,4.06,2.36,4.7,1.22.4,4.51.82,6.12-.81,0-1.06-.37-4.69-1.2-5.36C45.4,69.62,43.36,71.21,39.36,72.07Z"/><path class="cls-6" d="M9.27,46.53c-.31-1-2.82-1.18-4-1a5.07,5.07,0,0,0-4.56,5.1C.61,54.89,5.92,59.51,11,57.15c-.41-1.88-.63-3.78-1-5.67C9.76,50.27,8.67,49.16,9.27,46.53Z"/><path class="cls-7" d="M9.68,48.08c-.17-.56-1.58-.66-2.22-.58A2.84,2.84,0,0,0,4.9,50.35,4.15,4.15,0,0,0,10.63,54c-.23-1.06-.35-2.12-.55-3.18C10,50.18,9.34,49.56,9.68,48.08Z"/><path class="cls-8" d="M25.84,22c7.38-.75,15.12-2.66,21.93-1,3.74.92,15.56,3,17,14.09,1.32,10.54,11.22,22.51,5,29.53-7.15,8.08-29.9,9.2-40.59,8-11.41-1.3-14.54-2.38-18.56-11.13C8,55.92,6.3,41.81,8.52,36.11,11.29,29,12.83,25.12,25.84,22Z"/><path class="cls-9" d="M34.74,56c1.36,5.88,12.64,6.35,16.84,3.11"/><path class="cls-10" d="M45.61,49.25A4.34,4.34,0,0,1,48.78,51a2.5,2.5,0,0,1-.56,3.31,2.7,2.7,0,0,1-1.47.49c-.16,0,.07-1.22,0-1.41C46.62,52.56,46.8,50,45.61,49.25Z"/><path class="cls-1" d="M7.45,52.56c4.56-3.32,11.8-3.46,19.61-3.32,3,.05,11,2.48,13,.5,2.23.85,5.06,3.72,7.38,2.53s3.07-4.37,3.07-4.37a37.31,37.31,0,0,1,8.5-2.19c3.14-.25,7.78-.27,9.58,1.63.71-15.44.71-33.53-8-47.35.2,7.7-2.08,10.63-2.29,18-6.72-2.18-11.2-2.67-18.69-2.46-4.55.13-5-.36-12,0A72,72,0,0,0,17.5,17.1c-1.12-2.12,0-2.67,0-5A31.54,31.54,0,0,1,18.86,1.53C11.16,7.77,6.6,13.68,5.21,23.08,4.38,28.63,3.31,47.18,7.45,52.56Z"/><path class="cls-8" d="M18.1,45.11c0-1.95.13-4.36,1.89-5.86,1.94-1.66,5.94-1.29,8.24-.46,3.65,1.32,6,3.21,6.37,6.54C29.38,45.58,23.95,45,18.1,45.11Z"/><path class="cls-8" d="M62.88,42.26c-.18-1.94-.5-4.34-2.37-5.68-2.07-1.49-6-.79-8.25.23-3.53,1.62-5.74,3.7-5.81,7.05C51.68,43.67,57,42.63,62.88,42.26Z"/><path class="cls-11" d="M27.36,56.79c.39,2.69-1.9,5.14-5.1,5.46s-6.11-1.59-6.5-4.29,1.9-5.14,5.1-5.46S27,54.1,27.36,56.79Z"/><path class="cls-11" d="M68.05,51.76a4.65,4.65,0,0,1-4.14,5.36,5.15,5.15,0,0,1-5.54-4.38,4.65,4.65,0,0,1,4.14-5.36A5.15,5.15,0,0,1,68.05,51.76Z"/><path class="cls-5" d="M49.1,86.55a3.1,3.1,0,0,0-.72-.05A7.44,7.44,0,0,1,47,86.33c-.27-.05-.55-.08-.82-.13-.1,0-.21-.07-.28,0a1.88,1.88,0,0,0,0,.34,1.16,1.16,0,0,1-.3.49,1.08,1.08,0,0,1-.66.34,4.51,4.51,0,0,1-.29-1.49c-.36.46-.42,1.14-1,1.22-.76.1-1.07-.71-1.51-1.15a9.46,9.46,0,0,0,0,1.38,1.1,1.1,0,0,1-.45-.29,1.16,1.16,0,0,1-.3-.49,1.88,1.88,0,0,0,0-.34c-.07-.08-.18,0-.28,0-.27,0-.55.07-.82.13a7.44,7.44,0,0,1-1.36.17,3.1,3.1,0,0,0-.72.05,2.4,2.4,0,0,0-1.83,1.9,1,1,0,0,1,.88-.14c.3.11.53.6.83.66.14-.5.77-.93,1.2-.67A3,3,0,0,1,40,89.5c.2-.3.29-.57.62-.75a3.05,3.05,0,0,1,1.78-.15A5,5,0,0,0,43.8,90c.11-.29.66-.82,1-1.42a3.13,3.13,0,0,1,1.81.14c.33.17.42.45.62.75A3,3,0,0,1,48,88.3c.43-.26,1.06.17,1.2.67.3-.05.53-.54.83-.66a1,1,0,0,1,.88.14A2.4,2.4,0,0,0,49.1,86.55Z"/><path class="cls-1" d="M35.34,77.16C41.1,82,39,90.34,38.93,96.89c-.15,14,.35,30.46-10.46,41.31-5.33,5.36-12.4,8.2-19.85,6.77-2.3-.44-5.23-.8-7-2.5,2.81.29,5.36.75,8.11-.24a22.09,22.09,0,0,0,10.62-7.95c-3,2.13-8.42,2.56-11.25,1.19-3.07-1.48-3.39-1.62-7-6.61,3.24,3.58,8.4,3,11.32,2.34a12.06,12.06,0,0,0,9.12-8.07c1.93-5,1.65-11.33,1.6-16.54a58.94,58.94,0,0,1,1.23-11.94c.79-3.84,0-9.65,2.34-13C28.53,80.38,32.44,77.12,35.34,77.16Z"/><path class="cls-1" d="M51.59,77c-5.76,5-3.23,13.31-2.87,19.86.76,14,1,30.45,12.64,40.89,5.76,5.15,13.22,7.73,20.89,6,2.37-.53,5.39-1,7.15-2.76-2.9.39-5.52,1-8.42.07a23.09,23.09,0,0,1-11.36-7.54c3.23,2,8.84,2.24,11.72.77,3.12-1.6,3.44-1.75,7-6.87-2.29,2.55-8.59,3.36-11.64,2.77a12.49,12.49,0,0,1-9.81-7.72c-2.22-4.95-2.2-11.26-2.37-16.47a57,57,0,0,0-1.8-11.89c-1-3.81-.39-9.65-3-12.94C58.8,80,54.6,76.86,51.59,77Z"/><circle class="cls-1" cx="27.64" cy="42.49" r="1.25"/><circle class="cls-1" cx="55.11" cy="41" r="1.25"/></g></g></svg>