<svg xmlns="http://www.w3.org/2000/svg" viewBox="0 0 107.22 166.41"><defs><style>.cls-1{fill:#704ea0;}.cls-2{fill:#524466;}.cls-3{fill:#5b5653;}.cls-4{fill:#d8ceea;}.cls-5{fill:#b991db;}.cls-6{fill:#efbd9c;}.cls-7{fill:#9b6649;}.cls-8{fill:#ffcca6;}.cls-9{fill:#472413;}.cls-10{fill:#c97e4b;opacity:0.3;}.cls-11,.cls-16{fill:none;stroke-linecap:round;stroke-linejoin:round;}.cls-11{stroke:#ef8a62;stroke-width:0.75px;}.cls-12{fill:#f4e59a;}.cls-13{fill:#eac113;}.cls-14{fill:#f2de66;}.cls-15{fill:#bdb0d1;}.cls-16{stroke:#d8cee5;stroke-width:0.25px;}</style></defs><title>Asset 1</title><g id="Layer_2" data-name="Layer 2"><g id="OBJECT"><path class="cls-1" d="M29.14,127.43c2.35-.64,4.92-2,7.59-.95,3.29,1.34,4.7,5.68,6.51,8.14,3.06,4.16,10.53,5.79,15.22,2.83,4.95-3.12,5.23-4.28,11.69-2.3,2.17.66,4.21,1.51,6.58,1.11,2.21-.37,3.74-1.83,5.81-2.42.53-3.13,1.5-5.8,1.43-9.06-.13-5.67-2.24-11.19-3.87-16.62-1.74-5.82-2.93-12.48-6.73-17.63-2.23-3-4.58-7-7.81-9.27s-8.37,0-11.79,2c-3.6,2.12-5.5,5.57-8.2,8.58a95.14,95.14,0,0,0-12,16.6c-2,3.54-5.79,7.58-6.6,11.57C26.63,121.52,27,123.44,29.14,127.43Z"/><path class="cls-2" d="M54.92,78c-14.6,6-27.92,19.38-32,33.42a57.73,57.73,0,0,0-1.34,7.07c-.19,1.19-1.18,3.34-1,4.47.36,1.91,3.53,4.89,5.07,6.25s3.45,2.41,4.76,3.93c2-5.73,1.16-12.51,2.7-18.44,1-3.69,3.66-7,5.35-10.43a63.68,63.68,0,0,1,5.43-9.63c2.84-4,6.43-6.3,10.21-9.3C56,83.93,57.94,81.36,54.92,78Z"/><path class="cls-3" d="M48.4,120.49a285.62,285.62,0,0,0,1.84,31.16,36.39,36.39,0,0,0,.73,6,33.11,33.11,0,0,0,3.7,0c.77-6.34.08-13,.67-19.39.54-5.89,2.42-11.33,2.62-17.31A25.33,25.33,0,0,0,48.4,120.49Z"/><path class="cls-4" d="M68.69,119.41c0,8.79.93,18.69,9.56,23.33,4.17,2.25,14.76,2.81,16.69-2.62.23-.64.68-2.7.23-3.38-.72-1.1-2.18-.51-2.8-1.25-1.59-1.89.91-3.43,2.75-3.17,6,.84,4.23,10.47,1.46,13.66a13.32,13.32,0,0,1-10.65,5c-4.81,0-14.06-1.74-16.77-6.39-3.15-5.4-3.56-12.29-3.63-18.36C65.48,123.34,66.26,121,68.69,119.41Z"/><path class="cls-3" d="M68.5,120a285.62,285.62,0,0,1-1.84,31.16,36.39,36.39,0,0,1-.73,6,33.15,33.15,0,0,1-3.7,0c-.77-6.34-.08-13-.67-19.39-.54-5.89-2.42-11.33-2.62-17.31A25.33,25.33,0,0,1,68.5,120Z"/><path class="cls-5" d="M55.58,76.76c1.71,0,2-.47,3.63-.92a4.34,4.34,0,0,1,2.76.24c3.55,1.6,4.11.46,4.85,3,1.13,3.84.91,7.39,1.7,11.28.72,3.56,1.57,7.08,2.3,10.63-3.83,2.2-9.45,1.74-13.77,2.18-2.87.29-5.91-.13-8.78-.23-.11-2.79.75-5.32.76-8.1a47.82,47.82,0,0,1,.5-7.43C50,84.54,47,78.72,55.58,76.76Z"/><path class="cls-6" d="M61.41,71c-.19,2.34.84,4.7.49,7.06-.86.85-3.63,1.8-6.62-.19-.6-.94-1-5-.36-6.08C55.78,70.36,59.29,71,61.41,71Z"/><path class="cls-7" d="M4.12,77.89a7.48,7.48,0,0,1,4.13,3.35,2.33,2.33,0,0,1,1.17-1.16,3.28,3.28,0,0,1,3.71,1.15A2.49,2.49,0,0,1,14.36,80a3.54,3.54,0,0,1,3.69.87,3,3,0,0,1,1.57-2,3.4,3.4,0,0,1,1.63-.17,2.92,2.92,0,0,1,1-2,3.82,3.82,0,0,1,2.4-.74,3.38,3.38,0,0,1-.12-3.06,3.76,3.76,0,0,1,1.26-1.22c-.94-1.37-1.31-3.35-.57-4.53a4.63,4.63,0,0,1,1.56-1.51c-1.05-1.37-1.51-3.49-.74-4.73,1.65-2.64,5.7-3.07,7.55-.47.91,1.14-.49,3.54-2.15,5.08a4,4,0,0,1,1.32,1.15c1,1.22-.71,3.89-2.51,5.4a3.25,3.25,0,0,1,.41.44c1,1.22-1.3,4.18-3,5.05a3.29,3.29,0,0,1,.44,1c.42,1.31-2,3-3.9,3.5-.06,1.54-4.05,2.39-5.45,1.71-.91,1.29-4.68,1.86-5.55,1a1.76,1.76,0,0,1-.36-.57c-1.33.78-3.83,1-4.51.33a2,2,0,0,1-.49-1.19c-1.74,2.06-5.45,3.57-7,1.09.38-.31.82-.59,1.2-.91-1.79.12-2.76-2.08-1.08-2A2.79,2.79,0,0,1,0,80.32,1.53,1.53,0,0,1,1.58,80C0,77.92,2.39,77.46,4.12,77.89Z"/><path class="cls-7" d="M103.1,74.6A7.48,7.48,0,0,0,99,78a2.33,2.33,0,0,0-1.17-1.16,3.28,3.28,0,0,0-3.71,1.15,2.49,2.49,0,0,0-1.24-1.23,3.54,3.54,0,0,0-3.69.87,3,3,0,0,0-1.57-2A3.4,3.4,0,0,0,86,75.38a2.92,2.92,0,0,0-1-2,3.82,3.82,0,0,0-2.4-.74,3.38,3.38,0,0,0,.12-3.06,3.76,3.76,0,0,0-1.26-1.22C82.4,67,82.77,65,82,63.83a4.63,4.63,0,0,0-1.56-1.51c1.05-1.37,1.51-3.49.74-4.73-1.65-2.64-5.7-3.07-7.55-.47-.91,1.14.49,3.54,2.15,5.08a4,4,0,0,0-1.32,1.15c-1,1.22.71,3.89,2.51,5.4a3.25,3.25,0,0,0-.41.44c-1,1.22,1.3,4.18,3,5.05a3.29,3.29,0,0,0-.44,1c-.42,1.31,2,3,3.9,3.5.06,1.54,4.05,2.39,5.45,1.71.91,1.29,4.68,1.86,5.55,1a1.76,1.76,0,0,0,.36-.57c1.33.78,3.83,1,4.51.33A2,2,0,0,0,99.39,80c1.74,2.06,5.45,3.57,7,1.09-.38-.31-.82-.59-1.2-.91,1.79.12,2.76-2.08,1.08-2a2.79,2.79,0,0,0,.94-1.13,1.53,1.53,0,0,0-1.58-.37C107.19,74.63,104.83,74.18,103.1,74.6Z"/><path class="cls-8" d="M74.4,30.25c6.11,5.49,4,11.15,6.4,17.73,1,2.82,2.5,5.11,3,8.35A11.5,11.5,0,0,1,81,65.82C77.31,70,66.62,71.76,61.26,72.6c-7.67,1.2-22,.89-27-3.5a23.94,23.94,0,0,1-8.38-16.6c-.64-6.33,3.36-16.77,6.75-22.73,2.63-4.61,8.91-5.55,13.61-7.17,5.71-2,10-4.31,15.58-2A31.16,31.16,0,0,1,69,24.44c2.25,1.72,2.23,3.56,3.59,5.72"/><path class="cls-9" d="M44,52.39a.26.26,0,0,1-.13,0,1.79,1.79,0,0,1-1.25-1.54.26.26,0,0,1,.27-.26.27.27,0,0,1,.26.27c0,.47.49.85.92,1a.27.27,0,0,1-.07.51Z"/><path class="cls-9" d="M43.17,53.15a1.58,1.58,0,0,1-1.71-1.54.26.26,0,0,1,.23-.29h0a.26.26,0,0,1,.29.23,1,1,0,0,0,1.13,1.07.27.27,0,0,1,.05.53Z"/><path class="cls-8" d="M28.51,49.12A2.45,2.45,0,0,0,26,47.36a3.61,3.61,0,0,0-2.69.61c-1.49,1.33-1.4,4.47-.85,6.25.26.83.39,2,1.16,2.48.93.6,2.17.37,3.25.23,1.63-.21,1.27-1.39,1.6-2.82a9.19,9.19,0,0,0,.47-3.74,2.66,2.66,0,0,0-.44-1.25"/><path class="cls-10" d="M28,50.13A1.59,1.59,0,0,0,26.42,49a2.34,2.34,0,0,0-1.74.39c-1,.86-.91,2.9-.55,4,.17.54.25,1.28.75,1.6a3.17,3.17,0,0,0,2.1.15c1.05-.13.82-.9,1-1.83a6,6,0,0,0,.3-2.42,1.72,1.72,0,0,0-.28-.81"/><path class="cls-9" d="M69.19,49.08a.26.26,0,0,1-.13,0,1.79,1.79,0,0,1-1.25-1.54.27.27,0,1,1,.53,0c0,.47.49.85.92,1a.27.27,0,0,1-.07.51Z"/><path class="cls-9" d="M68.32,49.84a1.58,1.58,0,0,1-1.71-1.54.27.27,0,0,1,.23-.29.26.26,0,0,1,.29.23,1,1,0,0,0,1.13,1.07.27.27,0,0,1,.05.53Z"/><circle class="cls-9" cx="44.95" cy="53.21" r="2.08"/><circle class="cls-9" cx="69.86" cy="50.23" r="2.08"/><path class="cls-11" d="M56.24,58.47a3.47,3.47,0,0,0,2.43,1.37c1.51,0,1.58-.14,2.43-2.07"/><circle class="cls-10" cx="40.05" cy="62.11" r="4.61"/><circle class="cls-10" cx="76.99" cy="58.03" r="4.61"/><path class="cls-5" d="M71.18,102.19c-.19,2.6.45,5.45.55,8.07a53.92,53.92,0,0,1-.12,8.3,38.12,38.12,0,0,0-.78,4.8c-2.89.3-6.09-.1-9-.1-3.86,0-7.88.27-11.73-.11-1.09-.11-2.21-.19-3.37-.24a16.59,16.59,0,0,1-.25-3.42c-.06-2.56-.4-5.1-.46-7.64a18.59,18.59,0,0,1,.29-4.56c.12-.54.08-2.35.47-2.77.72-.78,4-.8,5-1,3.55-.75,7.14-1.31,10.74-1.78C64.38,101.49,68,100.61,71.18,102.19Z"/><path class="cls-12" d="M48,100.17a65.21,65.21,0,0,0,16.21-.2c1.75-.2,5.22-1.19,6.34,0,.82.84.87,3.1.78,4.16-7.86.08-15.76,1.08-23.66.79A14.19,14.19,0,0,1,48,100.17Z"/><path class="cls-13" d="M55.35,99.78c0,1.81-.83,6.46.94,7.33,2,1,7.42-.91,9.91-1,.22-2.28.35-7-2.36-7.5C61.55,98.17,58.05,99.13,55.35,99.78Z"/><path class="cls-14" d="M56.83,100.64c0,1.32-.6,4.69.68,5.33,1.44.71,5.39-.66,7.2-.74.16-1.66.25-5.09-1.72-5.45C61.33,99.47,58.79,100.17,56.83,100.64Z"/><path class="cls-5" d="M52.71,77.89c-2.05.4-3.81,1.89-5.57,3-3,1.89-6.41,2.85-9.21,5.07-.56.44-1.15.89-1.71,1.35a2.12,2.12,0,0,0-.19,3,61.2,61.2,0,0,1,5.65,7.32,15.78,15.78,0,0,0,3.42,3.44c.43-1.1,1.19-1.19,2-2.11-1.16-1.8-6.17-8.83-6.09-9.54.12-1,8.29-3.86,10.35-5.17C53.12,83.15,53.64,80.65,52.71,77.89Z"/><path class="cls-13" d="M41.53,99.8c.13-.9,1.74-1.8,2.38-2.38.47-.43,1.41-1.66,2-1.15a7.41,7.41,0,0,1,1,2.08c.22.51.33,1.05.52,1.56.54,1.45,1.34,2.2.9,3.81a5.6,5.6,0,0,1-3,3.49c-.57.31-1.51,1-2.19.76-1-.34-1-1-.66-1.79.09-.25.47-1.94,1-1.61.27.17.06,1.76,0,2,.72.22.82-.51,1.12-1A4.53,4.53,0,0,1,46,104.11c-.56-.92-2.12-1.46-2.93-2.21A6,6,0,0,1,41.53,99.8Z"/><path class="cls-5" d="M65.61,77.89c2.05.4,3.81,1.89,5.57,3,3,1.89,6.41,2.85,9.21,5.07.56.44,1.15.89,1.71,1.35a2.12,2.12,0,0,1,.19,3,61.2,61.2,0,0,0-5.65,7.32,15.78,15.78,0,0,1-3.42,3.44c-.43-1.1-1.19-1.19-2-2.11,1.16-1.8,6.17-8.83,6.09-9.54-.12-1-8.29-3.86-10.35-5.17C65.2,83.15,64.68,80.65,65.61,77.89Z"/><path class="cls-13" d="M76.79,99.8c-.13-.9-1.74-1.8-2.38-2.38-.47-.43-1.41-1.66-2-1.15a7.41,7.41,0,0,0-1,2.08c-.22.51-.33,1.05-.52,1.56-.54,1.45-1.34,2.2-.9,3.81a5.6,5.6,0,0,0,3,3.49c.57.31,1.51,1,2.19.76,1-.34,1-1,.66-1.79-.09-.25-.47-1.94-1-1.61-.27.17-.06,1.76,0,2-.72.22-.82-.51-1.12-1a4.53,4.53,0,0,0-1.41-1.47c.56-.92,2.12-1.46,2.93-2.21A6,6,0,0,0,76.79,99.8Z"/><path class="cls-2" d="M47.27,15.68C44.82,8.08,33.8,3.48,26.64,1.19c-1.71,4.64-3.6,9.93-2.88,15,.3,2.12,1.56,7.73,3.37,9.38,3.27,3,11-3.09,13.65-5.51C43.14,17.88,43.88,16.25,47.27,15.68Z"/><path class="cls-15" d="M43.55,15.45c-1.4-4.36-7.73-7-11.85-8.32-1,2.67-2.07,5.71-1.65,8.6.17,1.22.9,4.44,1.93,5.39,1.88,1.71,6.32-1.77,7.84-3.16C41.18,16.72,41.6,15.78,43.55,15.45Z"/><path class="cls-2" d="M59.11,16.79C60.65,9,71.06,3.11,77.91,0c2.24,4.41,4.73,9.45,4.6,14.54-.05,2.15-.65,7.86-2.25,9.71-2.9,3.34-11.28-1.79-14.2-3.88C63.46,18.5,62.54,17,59.11,16.79Z"/><path class="cls-15" d="M62.77,16.14c.89-4.5,6.87-7.86,10.8-9.65,1.29,2.53,2.72,5.43,2.64,8.35,0,1.23-.37,4.52-1.29,5.58-1.67,1.92-6.48-1-8.16-2.23C65.27,17.12,64.75,16.24,62.77,16.14Z"/><path class="cls-7" d="M69.32,27.25c4.25,10.33-9.72,14.18-16.88,13.86-.12-1.76.17-3.62-.34-5.35-1.92,6.91-2.61,5.5-9.44,6.78a9.83,9.83,0,0,0-.6-5c-.41,8.62-12,9.66-18.09,11.64.28-7.72-.11-15.55,1.21-23.18C26.74,17,35.6,14,44.08,13c7.38-.94,15.73.31,21.73,4.94C69.37,20.65,69.6,24.1,69.32,27.25Z"/><path class="cls-7" d="M58,25.44c6.13,3.78,7.2,12.15,12.41,14.78,1.81.91,4.68,1,6.48,1.57,1.62.54,3.37,1.57,4.92,2.08C81.52,33.72,84.16,21,70.71,14.25c-5.72-2.87-10.74-4-13.63,1.3C55.39,18.67,55.44,23.91,58,25.44Z"/><path class="cls-2" d="M53.21,75.3c3.42.33,6.92-.6,10.25-.28,0,.52,0,1.07,0,1.59,1,.14,2.79-.42,3.16.8a2.55,2.55,0,0,1-.8,2.08c-1.48,1.3-5.09.93-6.93.94-2.72,0-5.15-.78-7.8-1.27C51,77.57,51.09,75.25,53.21,75.3Z"/><path class="cls-2" d="M52,76.81a14.6,14.6,0,0,0-5-2.13c-1.79-.34-6.44-1.11-7.89.14,2,3.76,9.21,3.83,12.55,2.42-3.25,1.31-8.29,4.14-8,8.33C47.57,85.06,52.85,82,52,76.81Z"/><path class="cls-4" d="M58.1,85.9a7.09,7.09,0,0,1,2.2-.28c.22,0,.72.15.91,0s.73-1.07,1-1.42c.32,0,1.13,1.1,1.43,1.67a8.73,8.73,0,0,1,.46,2.56c.25,2.94-2.71,3.38-5.32,3.34-1,0-2.52,0-3.3-.73a3.33,3.33,0,0,1-.71-2.35,7.37,7.37,0,0,1,1-4.3,5.28,5.28,0,0,1,1.7,1.08C57.77,85.71,57.85,86,58.1,85.9Z"/><path class="cls-16" d="M63.22,87.77a4.32,4.32,0,0,0,1-.31l1.18-.37"/><path class="cls-16" d="M63.42,89c.86,0,1.68-.35,2.52-.42"/><path class="cls-16" d="M63.2,89.93c.14.17.66.21.86.24a17,17,0,0,0,1.91,0"/><path class="cls-16" d="M55.75,87.77a4.32,4.32,0,0,1-1-.31l-1.18-.37"/><path class="cls-16" d="M55.55,89c-.86,0-1.68-.35-2.52-.42"/><path class="cls-16" d="M55.78,89.93c-.14.17-.66.21-.86.24a17,17,0,0,1-1.91,0"/><path class="cls-1" d="M47.39,151.59a67,67,0,0,1,9-.65c.24,4.86.71,10.08,0,14.9-4.81-.07-9.92.92-14.7.44a6,6,0,0,1,6.53-6.79C48.54,157.43,47.36,154,47.39,151.59Z"/><path class="cls-1" d="M69.13,151.59a67,67,0,0,0-9-.65c-.24,4.86-.71,10.08,0,14.9,4.81-.07,9.92.92,14.7.44a6,6,0,0,0-6.53-6.79C68,157.43,69.16,154,69.13,151.59Z"/></g></g></svg>