<svg xmlns="http://www.w3.org/2000/svg" viewBox="0 0 138.89 167.95"><defs><style>.cls-1{fill:#772a15;}.cls-2{fill:#aa401b;}.cls-3{fill:#1b6a77;}.cls-15,.cls-4{fill:#edbb1b;}.cls-5{fill:#237d91;}.cls-6{fill:#e8bd92;}.cls-7{fill:none;stroke:#d39f71;stroke-linecap:round;stroke-linejoin:round;stroke-width:0.25px;}.cls-8{fill:#dbae86;}.cls-9{fill:#ce9e72;}.cls-10{fill:#436060;}.cls-11{fill:#d69274;}.cls-12{fill:#f9f9f9;}.cls-13{fill:#eaae78;opacity:0.72;}.cls-14{fill:#3d3418;}.cls-15{font-size:11.26px;font-family:EastMarket, EastMarket;}</style></defs><title>Asset 5</title><g id="Layer_2" data-name="Layer 2"><g id="OBJECT"><path class="cls-1" d="M60.28,141.34c3.62-3.74,8.8-9.1,14.17-9.83,5.84-.79,11.35,1.78,17.1,1.77,8.55,0,10.56-8.66,13.09-15.22,1.36-3.54,3.3-6.71,7.41-7.39,3.58-.59,7.5.34,10.57-2.31,1.18-1,3.89-4.84,3.34-6.41-.39-1.11-.95-.6-1.8-1-1.61-.66-5.7,0-7.3.07a77.25,77.25,0,0,1-11.45-.24c-11.28-1.3-16.93-5.34-24.84-12.92-4.17-4-7.43-9.42-13.59-10.34a53.78,53.78,0,0,0-9.83-.11c-4.13.2-7.09,2.4-10.72,4-5.44,2.33-6.51,7.24-7.32,13.1-1.6,11.58,5.27,17.69,9.56,27.84C51.22,128.42,51.49,137.11,60.28,141.34Z"/><path class="cls-2" d="M63,76.36c6.56-4.74,13.72,2.32,19,6,7,4.92,11,12.84,20.26,12.86,3.35,0,6.59-1,9.81-1.81a37.08,37.08,0,0,1,11.37-.9c5.48.32,11.51,3.55,15.53,7.18a12.09,12.09,0,0,0-9.3,5.07c-2.07,2.83-2.8,4.87-6.15,5.54-11,2.2-19.6,2.37-29.5-3.49-3.07-1.82-6.14-3.84-8-6.92a62.49,62.49,0,0,0-8-11.16,38.43,38.43,0,0,0-9.47-7.25C66.9,80.61,64.13,79.9,63,76.36Z"/><path class="cls-3" d="M56.81,116.69C56.13,120.15,67.45,145.2,73,147c2.84.93,6.67-.53,9.7-1.37,5.34-1.5,10.93-3,16.18-4.63,1.75-.56,4.59-1.52,5.56-3.09-4.4-2.32-7.36-2.85-12.33-1.66-3.67.89-8.48,3.27-11.88,3.61-4.13.41-7-22.51-9.3-25.44C66.89,109.42,58.67,113.8,56.81,116.69Z"/><path class="cls-4" d="M93.36,142.52c1.09-2.1-.67-4.63-2.06-6.09A22,22,0,0,1,99,135.2c1.66.14,2.72-.49,4.39-.27,1.24.17,1.76,2,1.59,3.26a4.29,4.29,0,0,1-.7,1.71c-.7,1.17.46.5-1.8,1A92.13,92.13,0,0,1,93.36,142.52Z"/><path class="cls-2" d="M100.88,135c1.3.84,2.71,1.92,2.85,3.57.1,1.1-.63,1.48-1.2,2.32,1.33,1.4.75,3.75,1.49,5.39a3.05,3.05,0,0,0,4.47.95c1.84-1.44,2.5-5.43,1.63-7.51s-2.75-4.82-4.82-5.69c-.95-.4-1.38-.13-2.38.32A9.56,9.56,0,0,1,100.88,135Z"/><path class="cls-5" d="M47.43,110.48c-1.12.35-16.07,16.1-21.39,25.28C24.7,138.08,17.33,150,15.6,152.27c-2.09,2.76-4.67,6.49-7.2,8.83-1.1,1-2.77.74-2.32,2.48,8.63.35,8.31,1.07,18.16-12.3,2.12-2.88,8-9.31,11-11.38s24.31-15.26,24.66-19.17c.18-2-5.75-11.09-7.92-11.26A10.55,10.55,0,0,0,47.43,110.48Z"/><path class="cls-4" d="M14.68,153.54c.52,2.31,3.5,3.1,5.5,3.32a22,22,0,0,1-5.13,5.94c-1.36,1-1.77,2.13-3.18,3-1.05.67-2.63-.38-3.32-1.46A4.3,4.3,0,0,1,8,162.62c-.22-1.34-.67-.09.73-1.93A92.13,92.13,0,0,1,14.68,153.54Z"/><path class="cls-2" d="M13.78,164.13c-1.54.2-3.31.28-4.48-.89-.78-.78-.47-1.54-.58-2.55-1.92-.21-3-2.38-4.62-3.16a3.05,3.05,0,0,0-4,2.16c-.47,2.29,1.59,5.76,3.6,6.79s5.21,1.91,7.35,1.24c1-.31,1.14-.79,1.61-1.78A9.55,9.55,0,0,1,13.78,164.13Z"/><path class="cls-6" d="M75.37,79.6c1.06.1,2.51-.76,3.51-1.08,1.19-.38,2.41-.65,3.6-1,3-.86,11.57-2.34,12.88-2.55A31.76,31.76,0,0,1,99,74.69c.12.61.32,1.21.42,1.82a6,6,0,0,1,.26,1.65c-.17.67-2,1.16-2.58,1.42A31.77,31.77,0,0,1,92.69,81c-4.19,1.15-8.42,2.14-12.64,3.18-1.22.3-2.38.75-3.59,1-.19-.86-.44-1.73-.64-2.59-.08-.36-.14-.77-.2-1.14S75.18,80.22,75.37,79.6Z"/><path class="cls-6" d="M97.8,75c.18-1.48.17-2.68,1-3.91a7.26,7.26,0,0,1,1.51-1.41c.31-.26.84-.86,1.29-.81s.34.85.19,1.23a11.12,11.12,0,0,0-.61,1.93c-.35-.91,2.88-1.95,3.46-2.16.88-.33,2.85-1.13,2.76-.46.07,1-1.66,2.11-2.22,2.79.13-.37.87-.53,1.23-.65a10.72,10.72,0,0,1,2.87-.55c.31,0,1.19-.22,1.44.06.83.94-3.25,2.2-3.52,2.8,1.11-.52,4.39-.68,4.52.06,0,1.25-3.17,1.83-4.16,2.21.89.24,3.63-.05,3.65.59s-2.37,1.45-2.71,1.6c-2.07.91-2.6,1.41-4.89,1.64a16.27,16.27,0,0,1-3.51-.26,3.67,3.67,0,0,1-1.34-.34c-1.51-.8-1.32-2.27-1.62-3.65"/><path class="cls-7" d="M105,71.94c.54.13.9,1.15,1.1,1.58a10.6,10.6,0,0,1,.54,1.62,6.39,6.39,0,0,1,.5,2.73h0s0,0,0-.08"/><path class="cls-7" d="M101.28,71.62a9.73,9.73,0,0,0,.06,1,3.36,3.36,0,0,1-.29,1.4c-.32.61-.84,1.43-1.6,1.48"/><path class="cls-3" d="M67.06,78.66c7.43,0,12.56-1,19.89-2.15,2.36-.38,8.35-1.17,10.35-2.25,1.49,1.33,1.55,3.34,1.5,5.21-4.55.67-8.33,3.09-12.65,4.41-3.7,1.13-13.78,6.19-17.34,7.55-1.85.71,4-2.8,2.81-4.31C70.22,85.34,67.25,82.35,67.06,78.66Z"/><path class="cls-6" d="M43.87,79.6c-1.06.1-2.51-.76-3.51-1.08-1.19-.38-2.41-.65-3.6-1-3-.86-11.57-2.34-12.88-2.55a31.76,31.76,0,0,0-3.67-.28c-.12.61-.32,1.21-.42,1.82a6,6,0,0,0-.26,1.65c.17.67,2,1.16,2.58,1.42A31.76,31.76,0,0,0,26.56,81c4.19,1.15,8.42,2.14,12.64,3.18,1.22.3,2.38.75,3.59,1,.19-.86.44-1.73.64-2.59.08-.36.14-.77.2-1.14S44.07,80.22,43.87,79.6Z"/><path class="cls-6" d="M21.45,75c-.18-1.48-.17-2.68-1-3.91A7.26,7.26,0,0,0,18.9,69.7c-.31-.26-.84-.86-1.29-.81s-.34.85-.19,1.23A11.11,11.11,0,0,1,18,72c.35-.91-2.88-1.95-3.46-2.16-.88-.33-2.85-1.13-2.76-.46-.07,1,1.66,2.11,2.22,2.79-.13-.37-.87-.53-1.23-.65A10.72,10.72,0,0,0,9.92,71c-.31,0-1.19-.22-1.44.06-.83.94,3.25,2.2,3.52,2.8-1.11-.52-4.39-.68-4.52.06,0,1.25,3.17,1.83,4.16,2.21-.89.24-3.63-.05-3.65.59s2.37,1.45,2.71,1.6c2.07.91,2.6,1.41,4.89,1.64a16.27,16.27,0,0,0,3.51-.26,3.67,3.67,0,0,0,1.34-.34c1.51-.8,1.32-2.27,1.62-3.65"/><path class="cls-7" d="M14.28,71.94c-.54.13-.9,1.15-1.1,1.58a10.61,10.61,0,0,0-.54,1.62,6.39,6.39,0,0,0-.5,2.73h0s0,0,0-.08"/><path class="cls-7" d="M18,71.62a9.79,9.79,0,0,1-.06,1,3.36,3.36,0,0,0,.29,1.4c.32.61.84,1.43,1.6,1.48"/><path class="cls-3" d="M52.19,78.66c-7.43,0-12.56-1-19.89-2.15-2.36-.38-8.35-1.17-10.35-2.25-1.49,1.33-1.55,3.34-1.5,5.21,4.55.67,8.33,3.09,12.65,4.41,3.7,1.13,13.78,6.19,17.34,7.55,1.85.71-4-2.8-2.81-4.31C49,85.34,52,82.35,52.19,78.66Z"/><path class="cls-5" d="M63.18,77.06c5.89.2,6.14,3.5,7.28,5.58,3,5.5,3.78,12.51,4.21,18.68.24,3.53.88,10.65-.8,14-.67,1.36-.88,1.28-2.62,1.49a59.5,59.5,0,0,1-14.43-.15c-3.85-.49-7.67-.55-11.51-.94-.61-.06-2.22,0-2.72-.55-1.89-1.94-.06-9,.39-11.69.75-4.57,1.44-6.61,2.1-11.17.47-3.29,2.8-11.69,7.12-13.68,1.56-.72,5.82-2.1,7.12-.87"/><path class="cls-8" d="M64.52,72.79c-1.72,1.62-.46,5.57-2.73,6.45-1.41.55-5.2,1.13-7.06-1.11,0-1.46.42-6.44,1.39-7.35C57.57,69.43,59.91,71.62,64.52,72.79Z"/><path class="cls-8" d="M88.89,46.88c.27-1.05,2.5-1.25,3.51-1.1,2.65.4,4,2.82,4,5.38.13,4.55-4.58,9.43-9.06,6.94.37-2,.56-4,.87-6C88.45,50.84,89.41,49.67,88.89,46.88Z"/><path class="cls-9" d="M88.52,48.52c.15-.59,1.4-.7,2-.62a2.87,2.87,0,0,1,2.27,3c.08,2.55-2.57,5.29-5.08,3.89.21-1.12.31-2.24.49-3.36A5.63,5.63,0,0,0,88.52,48.52Z"/><path class="cls-6" d="M74.18,21c-6.55-.79-13.42-2.81-19.46-1-3.31,1-13.81,3.13-15.05,14.88C38.5,46,29.72,58.63,35.22,66c6.34,8.53,26.53,9.72,36,8.44C81.37,73.11,84.14,72,87.71,62.72,90,56.8,91.52,41.9,89.55,35.89,87.09,28.35,85.73,24.28,74.18,21Z"/><circle class="cls-10" cx="68.7" cy="49.46" r="1.63" transform="translate(11.37 111.75) rotate(-83.12)"/><circle class="cls-10" cx="50.19" cy="46.53" r="1.63" transform="translate(-2.02 90.79) rotate(-83.12)"/><path class="cls-11" d="M56.63,49.76c-1.15-.11-2.43,1.21-2.81,1.84a3,3,0,0,0,.5,3.49c.23.19,1,.63,1.3.52.14-.05-.06-1.28,0-1.49C55.74,53.26,55.58,50.58,56.63,49.76Z"/><path class="cls-12" d="M66.56,58.92l-3.08-.17c-1.88-.1-13.09-.91-13.71-1-.11,2.32.15,6.09,2.06,7.86,1.52,1.41,4.77,2.22,6.71,2.3,2.44.11,5.29-.84,6.26-3,.46-1.05.67-1.74,1.05-2.85.25-.72.71-3.17.71-3.17"/><circle class="cls-13" cx="77.98" cy="58.34" r="5.19" transform="translate(10.72 128.78) rotate(-83.12)"/><ellipse class="cls-13" cx="41.01" cy="52.93" rx="5.19" ry="4.32" transform="translate(-16.44 87.31) rotate(-83.12)"/><path class="cls-14" d="M75.59,32.41C79,33.76,82.16,39,83.08,42.58a28,28,0,0,1,.48,7.33c1.9-.74,6.31-2,7.6-3.52,1.82-2.12,1.15-7.36,1-9.8-.18-3-1.19-9.45-4.66-10.67C84.44,24.84,79.4,29.43,75.59,32.41Z"/><path class="cls-14" d="M51.45,30.81c.33,1.88,1.7,4.78.78,6.76C51.13,39.9,46,41.38,43.77,40.8,39.5,39.71,42.7,34.21,45,36.22c-2.84-.56-2.74,3.7.84,3.17,4.67-.69,2.62-5.79,2.79-8.75C49.8,30.57,51.18,30.21,51.45,30.81Z"/><path class="cls-14" d="M53.9,33.56a6.23,6.23,0,0,1-2.09.28c-8.93-.2-16.21-2.49-18.45-11.58C32,16.71,32.43,11.82,36.52,7.45,40.08,3.65,41.76,2,46.91.69,57.25-2,67.73,3.81,77.46,6.4c7,1.87,19,2.13,23.62-4.34.9,12.34,1.65,26.08-13.87,30.7C80.06,34.88,73,34.16,66,33.22,63.26,32.86,57.33,32.43,53.9,33.56Z"/><path class="cls-4" d="M52.19,86.08c3.81,0,8.19-.28,12,.12.22.54,2.86,5.72,2.86,5.72s-7.14,8.83-8.61,8.87c-1,0-9.5-6.91-9.94-8.75C48.32,91.44,51.73,87.2,52.19,86.08Z"/><path class="cls-2" d="M53.22,87.28c3.1,0,6.67-.23,9.74.1.18.44,2.33,4.65,2.33,4.65s-5.82,7.19-7,7.23c-.79,0-7.73-5.63-8.09-7.12C50.07,91.64,52.84,88.19,53.22,87.28Z"/><text class="cls-15" transform="translate(54.29 95.92)">A</text><path class="cls-4" d="M74.11,125.37c0-4.49.59-8.36.56-12.85-6.86,2.11-15.21,1.08-22.28.25-3.47-.41-7.19-.64-10.59-1.29.21,2.13-2.7,5-2.43,7.14a7.82,7.82,0,0,1,5.33.2,16.63,16.63,0,0,1,5.65,3.44c1.53,1.34,2.93,3.89,4.69,4.29a11.27,11.27,0,0,0,2.27,0c1.72,0,2.27.11,3.36-1.14,2.15-2.46,4.56-3.58,7.82-3a16.92,16.92,0,0,1,3.7.67A2.9,2.9,0,0,1,74.11,125.37Z"/><path class="cls-2" d="M41.6,110.84c3.72.21,7.39,1,11.14,1,2.86,0,5.68.1,8.52.16,4.06.09,8,0,12-.33,1.48-.11,2.08-.06,2.35,1.49.16.93.29,2.58-.58,3.17-.3.2-.61.1-1,.13-3,.18-6,.66-9,.68a58.89,58.89,0,0,1-10.19-.71c-3.19-.54-6.42-.88-9.6-1.48a44.84,44.84,0,0,0-4.42-.87C40.81,113.39,40.49,111.21,41.6,110.84Z"/></g></g></svg>