<svg xmlns="http://www.w3.org/2000/svg" viewBox="0 0 94.34 176.49"><defs><style>.cls-1{fill:#97a4a5;}.cls-2{fill:#8c1818;}.cls-3{fill:#af1717;}.cls-4{fill:#e8bd92;}.cls-5{fill:#05687f;}.cls-6{fill:#268c7d;}.cls-7{fill:#2297b2;}.cls-8{fill:#3e4949;}.cls-9{fill:#dbae86;}.cls-10{fill:#fff;}.cls-11{fill:#ce9e72;}.cls-12{fill:#eaae78;opacity:0.72;}.cls-13{fill:#d69274;}.cls-14{fill:#519191;}.cls-15{fill:#aa8f21;}.cls-16{fill:#ceb121;}</style></defs><title>Asset 3</title><g id="Layer_2" data-name="Layer 2"><g id="OBJECT"><path class="cls-1" d="M29.5,20.29c1.18,4.81,2.46,8.52-1.74,11.87-3.79,3-9.54.9-13.88-1.17-6.24-3-9.7-8.51-7.66-15.64C7.53,10.79,11.45,2,16.19,0c-3.25,5-2.67,12.39-.06,17.55C18.56,22.34,23.57,23.07,29.5,20.29Z"/><path class="cls-1" d="M70.48,20.29C69.3,25.11,68,28.81,72.22,32.16c3.79,3,9.54.9,13.88-1.17,6.24-3,9.7-8.51,7.66-15.64C92.45,10.79,88.53,2,83.79,0c3.25,5,2.67,12.39.06,17.55C81.42,22.34,76.41,23.07,70.48,20.29Z"/><path class="cls-2" d="M18.34,101.59c.42-3.21,2.26-5,3.95-7.63,2-3.17,4.72-4.51,8.37-5.95a63.17,63.17,0,0,1,13.74-3.2c2.11-.32,4.4-1.33,4.55-3.86.4-7.1-19.81.69-22.23,2.3C23,85.71,17.63,94.34,18.34,101.59Z"/><path class="cls-3" d="M51.11,77.9c-4.75,0-9.77-.54-14.41.64s-9.85,4.34-13.56,7.32c-8.44,6.76-9.93,19.47-8.31,29.52,1.12,6.95,3.8,12.22,10,15.38,2.23,1.13,3.06,2.1,5.13.46,1.23-1,3.51-2.35,3.55-4.14-4-.21-7.7-1.68-10.21-5-3-4.06-2.48-7.34-2.88-12.23-.51-6.23-1.24-14.3,1.81-20C25.08,84.44,32,81,37.58,79.4c2.49-.73,5.67-1.48,8.17-.72,1.94.58,3.61,2.17,5.53,2.79A7.44,7.44,0,0,0,51.11,77.9Z"/><path class="cls-2" d="M17.16,106.92c-2.38.39-6.27,4.55-7.47,6.72-2.24,4.05-1.6,9.51-1.61,14,0,6.21,2,12.89,6.06,17.62C11.9,145,7.78,143,5.9,141.61a10.94,10.94,0,0,1-3.79-5.94c-.79-3.08-.35-6.75-.35-10s-.42-6.58,0-9.65C2.66,110.3,9.73,107.68,17.16,106.92Z"/><path class="cls-3" d="M47.55,82c1.05,6-9.8,12.7-13.84,14.8-7.42,3.86-16.37,4.66-23.63,8.79-3.72,2.12-7.76,7.9-9,11.92s-1.11,8.84-.85,13a20,20,0,0,0,9.66,16.27c5.66,3.37,13.5,5.42,20.08,3.67.28-2.76-.94-5.72-.07-8.55-2.1,0-4.6,2.31-7,2.61-1.72.21-8.76.14-12.8-2-3.16-1.68-6-7.38-6.91-9.41-1.41-3.22-1.44-8.06-1.38-11.55,0-3.07,1-7.83,3.25-10.15,2-2,6.2-2.64,8.86-3.2,3.79-.8,7.81-.65,11.67-1.25,5.92-.92,12.14-2.65,17-6.33,2.91-2.21,6.92-7,7.42-10.67A12.43,12.43,0,0,0,47.55,82Z"/><path class="cls-4" d="M81.65,89c2.83,1.57,7.66,3.63,6.47,7.25-1.55,4.71-8.63,5.79-9.93,10.12-1.69-2.67-4.46-3-2.53-6.32C77,97.81,80,96.7,81.13,94.71,79.27,93.1,74.2,90.24,81.65,89Z"/><path class="cls-5" d="M74.46,98.36c1.6,1,6.31,5.49,6.83,7.53.57,2.22-3.15,3.82-5.21,4.89-.11,2,.39,4.75-.76,6.2,2.27,0,3.91,1.84,1.52,3-.45.21-4.1.27-4.5-.07-.87-.71-.56-2.64-.66-3.77C71.17,110.32,69.86,103.3,74.46,98.36Z"/><path class="cls-6" d="M57.86,123.91c0,6.37-1.06,12.48-1.83,18.78s-1.29,12.72-2.61,19c-.49,2.36.24,5.07-.51,7.36-1.64,0-4.21,1-5.16-.12-1.24-1.47-.56-5.4-.62-7.2-.17-4.71-1-9.36-1.05-14.08s0-9.69-.13-14.53-1.25-10.56.31-15.11c2.5-.07,7-.82,8.63,1.36C55.81,120.62,55.31,122.38,57.86,123.91Z"/><path class="cls-7" d="M45,131.57a6.54,6.54,0,0,1,2.1-.14c.13,4.06.06,8.17,0,12.23-3,.11-2.5-1.73-2.5-4.42A55.21,55.21,0,0,1,45,131.57Z"/><path class="cls-7" d="M45.22,147.29a4.54,4.54,0,0,1,1.61-.22c.31,3.49.47,7,.64,10.53-2.27.23-2-1.37-2.16-3.69A53.12,53.12,0,0,1,45.22,147.29Z"/><path class="cls-8" d="M43.9,163.22c2.8,0,5.64-.11,8.44,0,1.18,0,2.28-.18,2.89.66s0,3-.09,3.79c-.23,2.58-.47,5.15-.7,7.69-3.68.43-7.41.79-11.11.93-1.34.05-4.24.63-5-.36s.12-3,1-3.69c1.89-1.56,4.32-1.33,6.7-1.36.21-1.25-.78-2.81-1-4.08A8.57,8.57,0,0,0,43.9,163.22Z"/><path class="cls-6" d="M60.58,122.82c0,6.37,1.06,12.48,1.83,18.78s1.29,12.72,2.61,19c.49,2.36-.24,5.07.51,7.36,1.64,0,4.21,1,5.16-.12,1.24-1.47.56-5.4.62-7.2.17-4.71,1-9.36,1.05-14.08s0-9.69.13-14.53,1.77-17.1.21-21.65c-2.5-.07-8-1.57-9.67.61C62.11,112.23,63.14,121.29,60.58,122.82Z"/><path class="cls-7" d="M73.46,130.48a6.54,6.54,0,0,0-2.1-.14c-.13,4.06-.06,8.17,0,12.23,3,.11,2.5-1.73,2.5-4.42A55.21,55.21,0,0,0,73.46,130.48Z"/><path class="cls-7" d="M73.23,146.19a4.54,4.54,0,0,0-1.61-.22c-.31,3.49-.47,7-.64,10.53,2.27.23,2-1.37,2.16-3.69A53.12,53.12,0,0,0,73.23,146.19Z"/><path class="cls-8" d="M74.54,162.12c-2.8,0-5.64-.11-8.44,0-1.18,0-2.28-.18-2.89.66s0,3,.09,3.79c.23,2.58.47,5.15.7,7.69,3.68.43,7.41.79,11.11.93,1.34.05,4.24.63,5-.36s-.12-3-1-3.69c-1.89-1.56-4.32-1.33-6.7-1.36-.21-1.25.78-2.81,1-4.08A8.57,8.57,0,0,1,74.54,162.12Z"/><path class="cls-4" d="M34.2,100.21c0,3.92-1.44,11.44,2.63,13.87,2,1.21,6.08.89,8.35.42s4.31-1.56,6.51-2a26.33,26.33,0,0,0,.26-4.66c-1.94-.24-4.31.39-6.23.64-1.32.18-4.32.66-5.33-.21s-.82-3-.79-4.16c0-2.3,1.6-4.15,1.45-6.43C39.15,97.64,34.93,97.33,34.2,100.21Z"/><path class="cls-6" d="M47.55,79.71c-10.26.05-14.95,11.25-15,20.12a57.54,57.54,0,0,0,5.94.68,13.08,13.08,0,0,0,3,0c1.08-.23.55.19,1.36-1,2.73-4.09,5.6-8.94,5.8-14,0-1.22.29-3.41-.13-4.59A3.57,3.57,0,0,0,47.55,79.71Z"/><path class="cls-6" d="M60,80.24c8.61-5.58,18.67,1.21,23.59,8.59A57.55,57.55,0,0,1,79,92.66a13.07,13.07,0,0,1-2.49,1.63c-1,.4-.35.46-1.7-.11-4.53-1.92-9.59-4.4-12.51-8.5-.71-1-2.12-2.69-2.41-3.91A3.57,3.57,0,0,1,60,80.24Z"/><path class="cls-6" d="M54.12,76.05c-5.51.17-12.42,5.82-13.48,7.58-2.8,4.63-2.35,6.69-.7,11.63,1.6,4.77,5.69,11.64,7.26,14.49h0a43.1,43.1,0,0,0,11.26-.32c3.6-.42,7.17-.46,10.75-.8.57-.05,2.07,0,2.54-.46,1.77-1.64.06-7.54-.37-9.84-.7-3.85-1.35-5.56-2-9.41-.44-2.77.22-8.94-3.81-10.61-1.46-.61-8.27-2.68-9.49-1.65"/><path class="cls-9" d="M51.25,72.46c1.61,1.36.43,4.69,2.55,5.43,1.32.46,4.86.95,6.59-.94,0-1.23-.4-5.42-1.3-6.19C57.75,69.63,55.55,71.47,51.25,72.46Z"/><path class="cls-10" d="M49.33,76.47c2.29,6.14,1.13,15.13-.58,21.47-.52,1.92-1.48,5.86-2.82,7.3,0,.23-.31-.14-.29.09-4.31-1.8-2.19-6.68-1.57-10.7.44-2.84,2.62-13.68,2-14.84C47.2,78.82,47.17,77.11,49.33,76.47Z"/><path class="cls-10" d="M62,77.19c-.28,5.35,2.37,12.11,4.85,16.67.75,1.38,2.22,4.23,3.43,5,0,.19.18-.18.22,0,2.56-2.44.11-5.75-1.15-8.75C68.43,88,64.7,80.07,64.88,79,63.92,78.52,63.59,77.17,62,77.19Z"/><path class="cls-1" d="M48.13,77.42c2.24,6.16.92,14.61-.32,20.81-.38,1.88-1.06,5.73-2.17,7.11,0,.23.14,1.37.16,1.6-4.44-2.26-2.58-8.21-2.2-12.16.28-2.79,1.75-13.42,1.16-14.59C46.07,78.82,46.27,78,48.13,77.42Z"/><path class="cls-1" d="M62.93,77.19c-.25,5.53,2.48,12,4.67,16.74.67,1.43,2,4.37,3,5.21,0,.2,1.47.7,1.5.89,1.37-2.75-1.21-6.83-2.33-9.93-.79-2.19-1.66-4.53-2.34-6.78-.31-1-1.46-3.63-1.3-4.72C65,77.82,64.35,77.17,62.93,77.19Z"/><path class="cls-1" d="M46.43,108.5c5.23.23,10.65-1.09,15.81-1.77,2-.26,4-.23,6-.5a15.2,15.2,0,0,0,4.36-1.05c1.26,1.93,1.22,4.08,1.18,6.32-5.15.6-10.16,1.91-15.34,2.39-3.21.3-6.38.58-9.54,1.18C48,113,47.94,110.64,46.43,108.5Z"/><circle class="cls-3" cx="56.56" cy="109.85" r="15.03"/><circle class="cls-10" cx="56.56" cy="110.12" r="11.68"/><circle class="cls-6" cx="56.56" cy="110.12" r="9.14"/><polygon class="cls-3" points="56.56 102.03 58.9 106.76 64.13 107.52 60.35 111.21 61.24 116.41 56.56 113.95 51.89 116.41 52.78 111.21 49 107.52 54.23 106.76 56.56 102.03"/><path class="cls-3" d="M48.48,75.53c4.5,0,9,0,13.48-.2,1.53-.06,3.7-.6,5.12-.37a4.08,4.08,0,0,1,0,1.53c-.55.18-.73.52-1.25.8,1.3.73,2.35-.17,2.4,1.59,0,1.94-3.39,3.83-4.65,4.63-1.74,1.11-3.75,2.63-5.89,2.5-2.91-.17-7.22-.79-9.94-2.11-1.35-.65-4.46-2.48-3.28-4.59.59-1.05,1.51-.66,2-1.92.11-.31-.89-.6-.55-1.28S47.32,75.39,48.48,75.53Z"/><path class="cls-9" d="M27.89,47c-.27-1-2.5-1.13-3.51-1a4.72,4.72,0,0,0-4,4.85c-.13,4.1,4.58,8.5,9.06,6.26-.37-1.79-.56-3.59-.87-5.4C28.33,50.53,27.36,49.48,27.89,47Z"/><path class="cls-11" d="M28.25,48.45c-.15-.53-1.4-.63-2-.56A2.65,2.65,0,0,0,24,50.61c-.08,2.3,2.57,4.77,5.08,3.51-.21-1-.31-2-.49-3A4.62,4.62,0,0,1,28.25,48.45Z"/><path class="cls-4" d="M42.59,23.65C49.13,22.94,56,21.12,62,22.73c3.31.88,13.81,2.82,15,13.41,1.17,10,10,21.42,4.45,28.1C75.2,71.92,55,73,45.53,71.83,35.4,70.6,32.63,69.56,29.07,61.24c-2.29-5.34-3.81-18.77-1.85-24.18C29.69,30.27,31,26.6,42.59,23.65Z"/><path class="cls-12" d="M80,51.95a4.38,4.38,0,0,1-3.67,5.11,4.65,4.65,0,0,1-4.91-4.17,4.38,4.38,0,0,1,3.67-5.11A4.65,4.65,0,0,1,80,51.95Z"/><path class="cls-10" d="M49,58.08c6.24,0,12.56-.05,18.78.29.83,5.31-6.53,7-10.36,7.24C52.57,65.94,50.52,63.24,49,58.08Z"/><path class="cls-13" d="M60.27,50.33A3.66,3.66,0,0,1,63,51.69a2,2,0,0,1-.58,2.72,2.63,2.63,0,0,1-1.31.43c-.14,0,.09-1,.06-1.16C61.08,53,61.3,50.94,60.27,50.33Z"/><path class="cls-12" d="M43.94,56.74a4.8,4.8,0,0,1-4.53,5.2,5.1,5.1,0,0,1-5.77-4.08,4.8,4.8,0,0,1,4.53-5.2A5.1,5.1,0,0,1,43.94,56.74Z"/><circle class="cls-14" cx="48.73" cy="47.15" r="1.54"/><circle class="cls-14" cx="66.18" cy="45.62" r="1.54"/><path class="cls-15" d="M24.82,34.68c0,4.27-.87,9.47.32,13.56,2.44-.22,4.17,1.59,6.67,1.24.85-2.47,1.13-6,1.66-8.71.37-1.85,1.66-6,1-7.79C33.53,30.28,25.82,29.69,24.82,34.68Z"/><path class="cls-16" d="M68.33,17.15c0,3.71.3,7.33-.92,10.87-2,5.78-5.12,7.9-10.4,10.21a33.42,33.42,0,0,1-.19-4.44c-1.19.51-5.28,4.34-6.56,3.59-1.09-.64-.33-5.55-.39-6.86-4.93,4.17-12,10.26-18.59,11.06-.43-1.7.75-3.39.39-5-3.72.74-8.69,3.24-11,6.4-1.3-11.44,5.51-26.1,13.65-33.8C43.34.61,66.81,1.52,68.33,17.15Z"/><path class="cls-16" d="M64.7,27.42c1.43,3.67,5.88,8.12,9,10.48.19-1.34.06-2.73.14-4.08,2,2.41,4.14,5.08,6.77,6.85,4.05-9.12,5.13-24.95-6-29.94C70.7,9,65.77,8.91,63.34,12.82,60.49,17.39,63.72,22.29,64.7,27.42Z"/></g></g></svg>