<svg xmlns="http://www.w3.org/2000/svg" viewBox="0 0 107.84 183.86"><defs><style>.cls-1{fill:#dbae86;}.cls-2{fill:#e8bd92;}.cls-3{fill:#087a99;}.cls-4{fill:#aaa7a7;}.cls-5{fill:#c6c6c6;}.cls-6{fill:#f4b516;}.cls-12,.cls-16,.cls-7{fill:none;}.cls-8{fill:#3e4949;}.cls-9{fill:#ef4343;}.cls-10{fill:#872525;}.cls-11{fill:#d12a2a;}.cls-12{stroke:#872525;}.cls-12,.cls-16{stroke-linecap:round;stroke-linejoin:round;}.cls-13{fill:#ce9e72;}.cls-14{fill:#fff;}.cls-15{fill:#d69274;}.cls-16{stroke:#33322c;}.cls-17{fill:#eaae78;opacity:0.72;}</style></defs><title>Asset 4</title><g id="Layer_2" data-name="Layer 2"><g id="OBJECT"><path class="cls-1" d="M61.52,71.11c-1.17,1.5.58,4-1.18,5.13-1.09.68-4.19,1.87-6.14.67-.24-1-.76-4.65-.1-5.49C55.07,70.16,57.43,71.23,61.52,71.11Z"/><path class="cls-2" d="M43.49,83.18c-2,3.78-10.41,9.57-14.63,8.67-5.15-1.1-9.77-5.87-11.32-11.93-1.89.9-3.91.12-4.56,2.16-.55,1.73,1.15,4,1.89,5.36,2.12,4,5,8.28,9.52,9.91a14.42,14.42,0,0,0,8.16.19A43.31,43.31,0,0,0,43.71,92c1.24-.82,3.47-2.5,3.58-4.14C47.46,85.15,43.31,84.74,43.49,83.18Z"/><path class="cls-3" d="M51.86,80.52a28.13,28.13,0,0,0-8.14-.1,19.38,19.38,0,0,1-3.4.78c-.49,3.51,3.38,12.07,7,13.18A49.77,49.77,0,0,0,51.86,80.52Z"/><path class="cls-3" d="M11,68a17.22,17.22,0,0,1,6.55-1.74c1.42,0,1.87.52,2.8,1.88a7.1,7.1,0,0,1,1.07,3.6c-.16,1.09-1.58,1.29-2.42,1.88-.35.25-.68,0-.8-.43A2.56,2.56,0,0,1,19,71a1.65,1.65,0,0,0-1.35-.87c-.14,3,3.32,5.65.37,8.19,1.18,1.5,3.12,3.3,4,5,.51,1,.64.3.37,1.48-.22,1-1.63,2.14-2.33,2.8-1.21,1.16-3.94,3.61-5.83,2.84-1.12-.46-1.49-2.6-2.06-3.66A67.3,67.3,0,0,1,6.41,72.53C5.72,70,7.35,68.32,11,68Z"/><path class="cls-4" d="M7.74,75.5C6.67,72.3,4.6,69.56,3.34,66.42A49.33,49.33,0,0,1,.13,54.18C-.26,51,.06,47.93,3.4,46.73c-2.54,3.64,0,9.64,1,13.57s3.22,7.38,4.77,11.14C10,73.36,9.83,74.06,7.74,75.5Z"/><path class="cls-5" d="M12.39,75.41C11.32,72.22,9.25,69.47,8,66.34A49.34,49.34,0,0,1,4.78,54.1c-.38-3.15-.07-6.25,3.27-7.45-2.54,3.64,0,9.64,1,13.57s3.22,7.38,4.77,11.14C14.63,73.27,14.48,74,12.39,75.41Z"/><path class="cls-6" d="M55.76,129.62c0,6.57,1,12.87,1.7,19.38s1.2,13.12,2.42,19.62c.46,2.44-.22,5.23.47,7.59,1.52,0,3.91,1,4.79-.12,1.15-1.52.52-5.57.58-7.43.15-4.85,1-9.65,1-14.52s0-10,.12-15,1.16-10.89-.28-15.59c-2.32-.07-6.49-.85-8,1.41C57.66,126.22,58.13,128,55.76,129.62Z"/><path class="cls-3" d="M68.72,170.16c-2.6,0-5.24-.11-7.84,0-1.09,0-2.12-.18-2.69.69s0,3.09.08,3.91c.21,2.66.44,5.31.65,7.93,3.41.44,6.88.81,10.31,1,1.25.05,3.93.65,4.64-.37s-.11-3-.94-3.81c-1.76-1.61-4-1.37-6.22-1.4-.19-1.29.72-2.9.92-4.2A9.55,9.55,0,0,1,68.72,170.16Z"/><path class="cls-6" d="M49.89,129.62c0,6.57-1,12.87-1.7,19.38s-1.2,13.12-2.42,19.62c-.46,2.44.22,5.23-.47,7.59-1.52,0-3.91,1-4.79-.12-1.15-1.52-.52-5.57-.58-7.43-.15-4.85-1-9.65-1-14.52s0-10-.12-15-.26-18.25,1.19-22.95c2.32-.07,5.58,6.51,7.11,8.77C48,126.22,47.52,128,49.89,129.62Z"/><path class="cls-3" d="M36.93,170.16c2.6,0,5.24-.11,7.84,0,1.09,0,2.12-.18,2.69.69s0,3.09-.08,3.91c-.21,2.66-.44,5.31-.65,7.93-3.41.44-6.88.81-10.31,1-1.25.05-3.93.65-4.64-.37s.11-3,.94-3.81c1.76-1.61,4-1.37,6.22-1.4.19-1.29-.72-2.9-.92-4.2A9.55,9.55,0,0,0,36.93,170.16Z"/><path class="cls-3" d="M68.29,116.32c0,2.46,1,5.19-.48,7-2.1,2.5-7.58,3.17-10.26,5.61S55,131.42,51,131.43c-3.39,0-4,0-6-3-1.41-2.15-3.09-4.13-4.45-6.21s-1.45-2.92-.53-6c1-3.44,1.76-3.81,5.29-4.12C52.22,111.48,59.49,112.58,68.29,116.32Z"/><path class="cls-6" d="M61.56,79.38c5.21,9.35,5.69,20.34,5.42,31a70.29,70.29,0,0,1-14.39-.15c-3.25-.35-6.63.07-9.81-.71-.45-8.5.26-17.15,5.1-24.35,1.53-2.28,3-6.23,5.74-7.41C56,76.69,59.77,77.93,61.56,79.38Z"/><path class="cls-7" d="M45.64,107.17c1.72-2.52,3.35-5,3.38-8.11-1.54,2.73-3.88,4.18-6.34,5.84,0-.83,0-1.66.07-2.49h.07c1.7-.39,3.25-2.82,4.13-4.1,1.72-2.52,3.35-5,3.38-8.11-1.66,2.93-4.22,4.39-6.89,6.21a29.75,29.75,0,0,1,4.45-11.26c1.53-2.28,3-6.23,5.74-7.41,2.38-1,6.14.2,7.94,1.65A45.42,45.42,0,0,1,66.7,97.73c-3.08-2.27-6.19-3.7-8.1-7.07,0,3.11,1.66,5.59,3.38,8.11.87,1.28,2.43,3.7,4.13,4.1a1.35,1.35,0,0,0,.89-.06q0,1.54,0,3.09c-2.75-1.9-5.42-3.36-7.13-6.37,0,3.11,1.66,5.59,3.38,8.11a20.3,20.3,0,0,0,2.19,2.84,73.14,73.14,0,0,1-12.88-.28c-2.91-.31-5.94,0-8.83-.52A23.55,23.55,0,0,0,45.64,107.17Z"/><path class="cls-3" d="M66.11,102.87c-1.7-.39-3.25-2.82-4.13-4.1-1.72-2.52-3.35-5-3.38-8.11,1.91,3.37,5,4.8,8.1,7.07.15,1.69.24,3.38.29,5.08A1.35,1.35,0,0,1,66.11,102.87Z"/><path class="cls-8" d="M59.91,99.53c1.71,3,4.38,4.47,7.13,6.37q0,2.23-.05,4.45l-1.51.14a20.3,20.3,0,0,1-2.19-2.84C61.57,105.12,59.94,102.64,59.91,99.53Z"/><path class="cls-3" d="M50.33,90.19c0,3.11-1.66,5.59-3.38,8.11-.87,1.28-2.43,3.7-4.13,4.1h-.07a44.62,44.62,0,0,1,.69-6C46.1,94.58,48.67,93.12,50.33,90.19Z"/><path class="cls-8" d="M49,99.06c0,3.11-1.66,5.59-3.38,8.11a23.55,23.55,0,0,1-1.88,2.51c-.33-.06-.65-.12-1-.2-.08-1.53-.12-3.06-.11-4.58C45.14,103.24,47.48,101.79,49,99.06Z"/><path class="cls-9" d="M67.46,108.61c-6.57,0-13-.41-19.55-.69-2.06-.09-4.63-.5-6.65-.18-.39,2.51-1.55,6.35,1.31,7.4,1.13.41,3.3,0,4.43,0,4,0,7.9.24,11.9.52,3.17.22,6.26.69,9.43.6A18,18,0,0,0,67.46,108.61Z"/><path class="cls-10" d="M62.17,108.31c-3.55,0-7-.68-10.55-.68-1.1,0-2.21-.05-3.24-.15-1.38-.13-1.54,1.41-2,2.49a11.21,11.21,0,0,0-1.15,5.51c2.95.08,5.94.55,8.87.53,2.09,0,4.16.41,6.22.29.3-1.4.72-2.86,1.08-4.26A35.85,35.85,0,0,1,62.17,108.31Z"/><path class="cls-11" d="M60,108.22c-.32,2,.23,7-2.45,8.08-1.78.73-9.84.44-10.7-1-.75-1.26.85-6.26,1.93-7.35C50.27,106.41,57.54,107.33,60,108.22Z"/><path class="cls-12" d="M60,108.43a18.27,18.27,0,0,1-3.52,1.51,24.63,24.63,0,0,0-3.61,1.87c-1.18.73-2.45,1.35-3.66,2-.81.47-1.89.8-2.58,1.29"/><path class="cls-12" d="M49,107.64c2.3,1.9,4.34,4.06,6.55,6A24.37,24.37,0,0,1,58,116.32"/><path class="cls-3" d="M65,75.68c-4.78.14-9.55-.76-14.35-.59-.24,1.64,1.1,3.84,1.83,5.27,2.27,0,5.94,1.1,8.14.3C62.19,80.08,63.28,76.65,65,75.68Z"/><path class="cls-1" d="M87.64,46.53c.31-1,2.82-1.18,4-1a5.07,5.07,0,0,1,4.56,5.1c.15,4.31-5.17,8.93-10.21,6.57.41-1.88.63-3.78,1-5.67C87.14,50.27,88.23,49.16,87.64,46.53Z"/><path class="cls-13" d="M87.23,48.08c.17-.56,1.58-.66,2.22-.58A2.84,2.84,0,0,1,92,50.35,4.15,4.15,0,0,1,86.28,54c.23-1.06.35-2.12.55-3.18C87,50.18,87.56,49.56,87.23,48.08Z"/><path class="cls-2" d="M71.07,22c-7.38-.75-15.12-2.66-21.93-1-3.74.92-15.57,3-17,14.09-1.32,10.54-11.22,22.51-5,29.53,7.15,8.08,29.9,9.2,40.59,8,11.41-1.3,14.54-2.38,18.56-11.13,2.58-5.61,4.3-19.72,2.08-25.41C85.61,29,84.08,25.12,71.07,22Z"/><path class="cls-14" d="M65.42,53.78c-1.88,1.4-13.7,2.47-13.95,3.81-.13.68,2.69,2.68,3.22,3a8.42,8.42,0,0,0,3.94,1.46c2.62.32,5.22-.41,6.59-3C65.95,57.71,65.72,56.22,65.42,53.78Z"/><path class="cls-15" d="M51.29,49.25A4.34,4.34,0,0,0,48.13,51a2.5,2.5,0,0,0,.56,3.31,2.7,2.7,0,0,0,1.47.49c.16-.05-.07-1.22,0-1.41C50.29,52.56,50.11,50,51.29,49.25Z"/><path class="cls-3" d="M89.46,52.56c-4.56-3.32-11.8-3.46-19.61-3.32-3,.05-11,2.48-13,.5-2.23.85-5.06,3.72-7.38,2.53s-3.07-4.37-3.07-4.37a37.31,37.31,0,0,0-8.51-2.19c-3.14-.25-7.78-.27-9.58,1.63-.71-15.44-.71-33.53,8-47.35-.2,7.7,2.08,10.63,2.29,18,6.72-2.18,11.2-2.67,18.69-2.46,4.55.13,5-.36,12,0A72,72,0,0,1,79.4,17.1c1.12-2.12,1-5.3,1-7.58,0-3.17-1-3.95-2.33-8C85.74,7.77,90.3,13.68,91.7,23.08,92.53,28.63,93.59,47.18,89.46,52.56Z"/><path class="cls-7" d="M30.64,43.65c4.77.26,9.59.35,14.4.61,2.64.14,5.29,1,7-1.07a5.83,5.83,0,0,0,1.27-4.59c-.23-5.15-4-7.35-8.38-9.17C39.21,27,32.42,24.79,29.35,19.07A52.18,52.18,0,0,1,36.29,0c-.2,7.7,2.08,10.63,2.29,18,1.73-.56,3.31-1,4.83-1.36,1.25,1.75,3.7,3.39,5,4.54,1.84,1.57,3.57,3.19,5.29,4.88a22,22,0,0,0,4.39,3.4c-1.45-2.5-3.07-4.89-4.51-7.4-1.22-2.12-1.12-3.68-1.67-5.94l-.14-.58c.87,0,1.77,0,2.72,0,.17.32.35.63.5.93C56.18,18.73,57,22.24,58.94,24a4.71,4.71,0,0,0,1-1.77,37.21,37.21,0,0,0,2.31-6.81c.89,0,1.89-.06,3.23,0-.05.18-.1.4-.18.71-.55,2.26-.45,3.83-1.67,5.94-1.44,2.51-3.06,4.9-4.51,7.4a22,22,0,0,0,4.39-3.4c1.72-1.69,3.45-3.31,5.29-4.88,1.47-1.26,4.29-3.13,5.38-5.08,2.85.45,5.24,1,5.24,1,1.12-2.12,1-5.3,1-7.58,0-3.17-1-3.95-2.33-8,7,5.65,11.36,11,13.17,19l-.34-.14c-3.65,6.21-12.62,8.49-20.14,11-5.49,1.83-8.56,2-12,8.38a3.7,3.7,0,0,0,.64,4.82c2.2,2.11,8,1.78,11.3,1.64,6.07-.26,12.16-.35,18.19-.61.89,0,2,0,3-.1-.46,3-1.21,5.56-2.37,7.07-4.56-3.32-11.8-3.46-19.61-3.32-3,.05-11,2.48-13,.5-2.23.85-5.06,3.72-7.38,2.53s-3.07-4.37-3.07-4.37a37.31,37.31,0,0,0-8.51-2.19c-3.14-.25-7.78-.27-9.58,1.63-.06-1.25-.11-2.53-.15-3.81C29,43.62,29.9,43.61,30.64,43.65Z"/><path class="cls-8" d="M58.94,24c-2-1.79-2.76-5.3-3.92-7.61-.15-.3-.33-.61-.5-.93.88,0,1.79,0,2.76,0,2.22.06,3.47,0,5-.08a37.21,37.21,0,0,1-2.31,6.81A4.71,4.71,0,0,1,58.94,24Z"/><path class="cls-6" d="M68.79,21.17c-1.84,1.57-3.57,3.19-5.29,4.88a22,22,0,0,1-4.39,3.4c1.45-2.5,3.07-4.89,4.51-7.4,1.22-2.12,1.12-3.68,1.67-5.94.07-.31.13-.53.18-.71,1,0,2.24,0,3.79.13a48.37,48.37,0,0,1,4.9.56C73.08,18,70.26,19.91,68.79,21.17Z"/><path class="cls-6" d="M53.62,22.06c1.44,2.51,3.06,4.9,4.51,7.4a22,22,0,0,1-4.39-3.4c-1.72-1.69-3.45-3.31-5.29-4.88-1.34-1.15-3.78-2.79-5-4.54a42.86,42.86,0,0,1,8.39-1.09l.14.58C52.49,18.38,52.4,19.94,53.62,22.06Z"/><path class="cls-8" d="M70.62,46.21c-3.33.14-9.1.47-11.3-1.64a3.7,3.7,0,0,1-.64-4.82c3.48-6.41,6.56-6.55,12-8.38,7.52-2.51,16.49-4.78,20.14-11l.34.14c.19.83.36,1.67.49,2.56.59,4,1.31,14.71.13,22.42-1,.07-2.13.06-3,.1C82.78,45.86,76.69,45.95,70.62,46.21Z"/><path class="cls-8" d="M44.95,29.42c4.34,1.83,8.15,4,8.38,9.17a5.83,5.83,0,0,1-1.27,4.59c-1.74,2.11-4.39,1.22-7,1.07-4.8-.26-9.62-.35-14.4-.61-.74,0-1.66,0-2.52-.11a119.58,119.58,0,0,1,1.23-24.46C32.42,24.79,39.21,27,44.95,29.42Z"/><path class="cls-2" d="M78.81,45.11c0-1.95-.13-4.36-1.89-5.86C75,37.59,71,38,68.68,38.79c-3.65,1.32-6,3.21-6.37,6.54C67.53,45.58,73,45,78.81,45.11Z"/><path class="cls-2" d="M34,42.26c.18-1.94.5-4.34,2.37-5.68,2.07-1.49,6-.79,8.25.23,3.53,1.62,5.74,3.7,5.81,7.05C45.22,43.67,39.86,42.63,34,42.26Z"/><path class="cls-16" d="M73.49,44c.17-2.51-3.38-2.68-5.05-2.42s-2.16,1.24-2.8,2.72"/><path class="cls-16" d="M38.21,41.9c.11-2.51,3.66-2.29,5.29-1.84s2,1.47,2.48,3"/><path class="cls-17" d="M69.54,56.79c-.39,2.69,1.9,5.14,5.1,5.46s6.11-1.59,6.5-4.29-1.9-5.14-5.1-5.46S69.93,54.1,69.54,56.79Z"/><path class="cls-17" d="M28.86,51.76A4.65,4.65,0,0,0,33,57.12a5.15,5.15,0,0,0,5.54-4.38,4.65,4.65,0,0,0-4.14-5.36A5.15,5.15,0,0,0,28.86,51.76Z"/><path class="cls-2" d="M68.89,83.18c2,3.78,10.41,9.57,14.63,8.67,5.15-1.1,9.77-5.87,11.32-11.93,1.89.9,3.91.12,4.56,2.16.55,1.73-1.15,4-1.89,5.36-2.12,4-5,8.28-9.52,9.91a14.42,14.42,0,0,1-8.16.19A43.31,43.31,0,0,1,68.67,92c-1.24-.82-3.47-2.5-3.58-4.14C64.92,85.15,69.06,84.74,68.89,83.18Z"/><path class="cls-3" d="M101.4,68a17.22,17.22,0,0,0-6.55-1.74c-1.42,0-1.87.52-2.8,1.88A7.1,7.1,0,0,0,91,71.76c.16,1.09,1.58,1.29,2.42,1.88.35.25.68,0,.8-.43a2.56,2.56,0,0,0-.81-2.2,1.65,1.65,0,0,1,1.35-.87c.14,3-3.32,5.65-.37,8.19-1.18,1.5-3.12,3.3-4,5-.51,1-.64.3-.37,1.48.22,1,1.63,2.14,2.33,2.8,1.21,1.16,3.94,3.61,5.83,2.84,1.12-.46,1.49-2.6,2.06-3.66A67.3,67.3,0,0,0,106,72.53C106.65,70,105,68.32,101.4,68Z"/><path class="cls-4" d="M100.1,75.5c1.08-3.19,3.15-5.94,4.41-9.08a49.33,49.33,0,0,0,3.21-12.24c.38-3.15.07-6.25-3.27-7.45,2.54,3.64,0,9.64-1,13.57s-3.22,7.38-4.77,11.14C97.87,73.36,98,74.06,100.1,75.5Z"/><path class="cls-5" d="M95.45,75.41c1.08-3.19,3.15-5.94,4.41-9.08a49.33,49.33,0,0,0,3.21-12.24c.38-3.15.07-6.25-3.27-7.45,2.54,3.64,0,9.64-1,13.57S95.55,67.59,94,71.36C93.22,73.27,93.36,74,95.45,75.41Z"/><path class="cls-3" d="M62,80.52a28.13,28.13,0,0,1,8.14-.1,19.38,19.38,0,0,0,3.4.78c.49,3.51-3.38,12.07-7,13.18A49.77,49.77,0,0,1,62,80.52Z"/></g></g></svg>