<svg xmlns="http://www.w3.org/2000/svg" viewBox="0 0 90.74 159.73"><defs><style>.cls-1{fill:#f2de66;}.cls-2{fill:#eac113;}.cls-3{fill:#3d3d2e;}.cls-4{fill:#ffcca6;}.cls-5{fill:#f97070;}.cls-6{fill:#b4c8db;}.cls-7{fill:#8eafd6;}.cls-8{fill:#79a3e0;}.cls-9{fill:#efbd9c;}.cls-10{fill:#472413;}.cls-11{fill:#c97e4b;opacity:0.3;}.cls-12{fill:none;stroke:#ef8a62;stroke-linecap:round;stroke-linejoin:round;stroke-width:0.75px;}.cls-13{fill:#4c4c3d;}.cls-14{fill:#f4e59a;}.cls-15{fill:#f4e8a8;}</style></defs><title>Asset 2</title><g id="Layer_2" data-name="Layer 2"><g id="OBJECT"><path class="cls-1" d="M23.72,121c2.35-.64,4.92-2,7.59-.95,3.29,1.34,4.7,5.68,6.51,8.14C40.88,132.36,48.35,134,53,131c4.95-3.12,5.23-4.28,11.69-2.3,2.17.66,4.21,1.51,6.58,1.11,2.21-.37,3.74-1.83,5.81-2.42.53-3.13,1.5-5.8,1.43-9.06-.13-5.67-2.24-11.19-3.87-16.62C72.94,95.93,71.75,89.27,68,84.12c-2.23-3-4.58-7-7.81-9.27s-8.37,0-11.79,2c-3.6,2.12-5.5,5.57-8.2,8.58a95.14,95.14,0,0,0-12,16.6c-2,3.54-5.79,7.58-6.6,11.57C21.22,115.11,21.55,117,23.72,121Z"/><path class="cls-2" d="M49.5,71.62c-14.6,6-27.92,19.38-32,33.42a57.71,57.71,0,0,0-1.34,7.07c-.19,1.19-1.18,3.34-1,4.47.36,1.91,3.53,4.9,5.07,6.25s3.45,2.41,4.76,3.93c2-5.73,1.16-12.51,2.7-18.44,1-3.69,3.66-7,5.35-10.43a63.69,63.69,0,0,1,5.43-9.63c2.84-4,6.43-6.3,10.21-9.3C50.53,77.52,52.52,75,49.5,71.62Z"/><path class="cls-3" d="M6,43.64c1.08,3.8,2.47,8.21.33,11.86S.51,61.58,0,66.11c-.68,6.73,6.54,12.06,12.27,14.2,6.93,2.59,12.74-.38,18.75-3.32,5.8-2.84,11.37.45,17,1.72,7.87,1.76,17,.16,24.3-3.14,6.39-2.9,10.78-5.25,9.83-12.93-.91-7.44-2.42-14.92-2.4-22.43,0-4,.61-8.28-1-12A54.41,54.41,0,0,0,69.12,14C65.94,10.5,61.66,9.39,57,9.4A56.48,56.48,0,0,0,20.94,22C14.14,27.44,9.3,34.2,6,43.64Z"/><path class="cls-4" d="M43,114.09a285.61,285.61,0,0,0,1.84,31.16,36.39,36.39,0,0,0,.73,6,33.13,33.13,0,0,0,3.7,0c.77-6.34.08-13,.67-19.39.54-5.89,2.42-11.33,2.62-17.31A25.33,25.33,0,0,0,43,114.09Z"/><path class="cls-5" d="M42.53,132.21a7,7,0,0,1,1.4-4.26c1.83,1.31,5.08,3.79,6,5.95,1.05,2.4.28,6.61.28,9.22,0,5.49.14,11,0,16.5-4.38.15-8.89.16-13.28,0-1.16-4.19,4.33-3.85,6.46-4.77a59.07,59.07,0,0,0-.48-12.35C42.49,139.37,42.9,135.65,42.53,132.21Z"/><path class="cls-4" d="M63.08,113.63a285.64,285.64,0,0,1-1.84,31.16,36.39,36.39,0,0,1-.73,6,33.1,33.1,0,0,1-3.7,0c-.77-6.34-.08-13-.67-19.39-.54-5.89-2.42-11.33-2.62-17.31A25.33,25.33,0,0,1,63.08,113.63Z"/><path class="cls-5" d="M63.53,131.75a7,7,0,0,0-1.4-4.26c-1.83,1.31-5.08,3.79-6,5.95-1.05,2.4-.28,6.61-.28,9.22,0,5.49-.14,11,0,16.5,4.38.15,8.89.16,13.28,0,1.16-4.19-4.33-3.85-6.46-4.77A59.07,59.07,0,0,1,63.14,142C63.57,138.91,63.17,135.19,63.53,131.75Z"/><path class="cls-6" d="M46.91,93.82c-4.33,1.87-6.48,5.93-9.92,8.79-1.12.93-2.66,1.93-3.34,3.12-.53.93-.59,1.17,0,2,1.62,2.52,5.37,5.84,8.52,6.2.79.09,2.89.07,3.6-.42s1.09-2.22,1.39-3.06a48.14,48.14,0,0,0,2.19-10.38C49.51,98.45,50.18,94.19,46.91,93.82Z"/><path class="cls-6" d="M61.28,92.07c4.33,1.87,6.48,5.93,9.92,8.79,1.12.93,2.66,1.93,3.34,3.12.53.93.59,1.17,0,2-1.62,2.52-5.37,5.84-8.52,6.2-.79.09-2.89.07-3.6-.42s-1.09-2.22-1.39-3.06a48.13,48.13,0,0,1-2.19-10.38C58.68,96.7,58,92.45,61.28,92.07Z"/><path class="cls-7" d="M48.38,97.06c-4,2.94-5.13,7.53-7.93,11.25-.91,1.2-2.24,2.58-2.63,3.94-.3,1.06-.31,1.32.5,2.06,2.31,2.14,7,4.55,10.34,4.15.83-.1,3-.63,3.59-1.3s.55-2.49.65-3.41a48.56,48.56,0,0,0-.42-11C52.24,101.07,51.84,96.63,48.38,97.06Z"/><path class="cls-7" d="M58.36,95.43c4,3.29,5.13,8.44,7.93,12.6.91,1.35,2.24,2.9,2.63,4.42.3,1.19.31,1.48-.5,2.31-2.31,2.4-7,5.1-10.34,4.65-.83-.11-3-.71-3.59-1.45s-.55-2.79-.65-3.82a60.9,60.9,0,0,1,.42-12.27C54.5,99.92,54.9,95,58.36,95.43Z"/><path class="cls-8" d="M51.77,97.54c-1.76,2.3-2.16,5.81-3,8.48a84.25,84.25,0,0,0-3,9.51c-.22,1.1-.4,2.25.28,3.11,2.6,3.26,9.49,2.86,12.91,1.56.25-6.15.41-12.21-.64-18.35-.3-1.77-.56-3.21-2.19-4.27A4.61,4.61,0,0,0,51.77,97.54Z"/><path class="cls-5" d="M50.16,70.35c1.71,0,2-.47,3.63-.92a4.34,4.34,0,0,1,2.76.24c3.55,1.6,4.11.46,4.85,3,1.13,3.84.91,7.39,1.7,11.28.72,3.56,1.57,7.08,2.3,10.63-3.83,2.2-9.45,1.74-13.77,2.18-2.87.29-5.91-.13-8.78-.23-.11-2.79.75-5.32.76-8.1a47.82,47.82,0,0,1,.5-7.43C44.56,78.14,41.62,72.32,50.16,70.35Z"/><path class="cls-9" d="M56,64.6c-.19,2.34.84,4.7.49,7.06-.86.85-3.63,1.8-6.62-.19-.6-.94-1-5-.36-6.08C50.36,64,53.87,64.6,56,64.6Z"/><path class="cls-4" d="M69,23.84c6.11,5.49,4,11.15,6.4,17.73,1,2.82,2.5,5.11,3,8.35a11.5,11.5,0,0,1-2.84,9.48c-3.67,4.22-14.36,5.95-19.72,6.79-7.67,1.2-22,.89-27-3.5a23.94,23.94,0,0,1-8.38-16.6c-.64-6.33,3.36-16.77,6.75-22.73,2.63-4.61,8.91-5.55,13.61-7.17,5.71-2,10-4.31,15.58-2A31.16,31.16,0,0,1,63.62,18c2.25,1.72,2.23,3.56,3.59,5.72"/><path class="cls-10" d="M38.63,46a.26.26,0,0,1-.13,0,1.79,1.79,0,0,1-1.25-1.54.26.26,0,0,1,.27-.26.27.27,0,0,1,.26.27c0,.47.49.85.92,1a.27.27,0,0,1-.07.51Z"/><path class="cls-10" d="M37.76,46.74A1.58,1.58,0,0,1,36,45.2a.26.26,0,0,1,.23-.29h0a.27.27,0,0,1,.29.23,1,1,0,0,0,1.13,1.07.27.27,0,1,1,.05.53Z"/><path class="cls-4" d="M23.09,42.71A2.45,2.45,0,0,0,20.59,41a3.61,3.61,0,0,0-2.69.61c-1.49,1.33-1.4,4.47-.85,6.25.26.83.39,2,1.16,2.48.93.6,2.17.37,3.25.23,1.63-.21,1.27-1.39,1.6-2.82A9.19,9.19,0,0,0,23.53,44a2.66,2.66,0,0,0-.44-1.25"/><path class="cls-11" d="M22.63,43.72A1.59,1.59,0,0,0,21,42.58a2.34,2.34,0,0,0-1.74.39c-1,.86-.91,2.9-.55,4,.17.54.25,1.28.75,1.6a3.17,3.17,0,0,0,2.11.15c1.05-.13.82-.9,1-1.83a6,6,0,0,0,.3-2.42,1.73,1.73,0,0,0-.28-.81"/><path class="cls-10" d="M63.77,42.67a.26.26,0,0,1-.13,0,1.79,1.79,0,0,1-1.25-1.54.27.27,0,1,1,.53,0c0,.47.49.85.92,1a.27.27,0,0,1-.07.51Z"/><path class="cls-10" d="M62.9,43.43a1.58,1.58,0,0,1-1.71-1.54.27.27,0,0,1,.23-.29.26.26,0,0,1,.29.23,1,1,0,0,0,1.13,1.07.27.27,0,1,1,.05.53Z"/><circle class="cls-10" cx="39.54" cy="46.8" r="2.08"/><circle class="cls-10" cx="64.45" cy="43.82" r="2.08"/><path class="cls-12" d="M50.82,52.06a3.47,3.47,0,0,0,2.43,1.37c1.51,0,1.58-.14,2.43-2.07"/><circle class="cls-11" cx="34.63" cy="55.7" r="4.61"/><circle class="cls-11" cx="71.57" cy="51.62" r="4.61"/><path class="cls-13" d="M32.81,4.22C35.43,1,39.76,1.3,43.63.87,49.08.27,54.9-.61,60.34.62,70,2.8,82.24,12.78,74.43,22.22c-1.43,1.73-3,2.17-5.26,2.45-5.54.67-11.33.07-16.91.47a100,100,0,0,0-15,2.23c-1.91.44-4.63,1.54-6.66.87-5.7-1.9-2.68-9.84-1.1-13.29,1.39-3,2.77-6.08,4-9.19C33.86,4.68,34.56,4.06,32.81,4.22Z"/><path class="cls-2" d="M26.81,35.15c11.53-6,30.83-4.23,43.21-4,.31-1.36,0-2.21-.76-4.22-.66-1.65-1-3.42-2.74-3.71-4.84-.8-7.7-3.23-11.29-7.14-1.79-1.95-3.53-4.47-5.37-6.15-1.84,2.89-3.59,6.54-6,9.17-2.86,3.12-7.39,4.68-11.42,5.65-3,.73-5.17.58-5.86,4.24A11.41,11.41,0,0,0,26.81,35.15Z"/><path class="cls-1" d="M30.36,33.22c9.14-4.77,25.79-3.36,35.6-3.15.24-1.08,0-1.75-.6-3.35-.52-1.31-.78-2.71-2.17-2.94-3.84-.63-6.11-2.56-9-5.66-1.42-1.55-2.8-3.54-4.26-4.88-1.46,2.29-2.85,5.18-4.76,7.27C42.94,23,39.34,24.22,36.14,25c-2.41.58-5.39,1.08-5.93,4A6.89,6.89,0,0,0,30.36,33.22Z"/><path class="cls-13" d="M38.06,19.1c-4.45-1.56-8.24,6.63-8.91,10.85-1,6.21,6.2,7,7.82,11.75,2.68,7.82-19.47,10.45-11,20.55,2.19,2.6,21.09,7.46,13,12.67-3.65,2.36-8.7,2.39-12.9,2.6-3.73.19-7.27.32-10.86-.66-3.8-1-6.79-2.11-7.27-6.36-.33-2.9-.63-6.88,2.85-7.85,1.48-2.5-1.48-5.13-2.78-7.26C5.48,51.16,3.62,44.9,5.48,40c1.32-3.45,5-5.67,4.79-9.55s-6-8-3-11.81c1.92-2.49,5.2-3.66,7-6.41A15.75,15.75,0,0,1,18.94,7,33,33,0,0,1,30.88,2.4c7-1.44,13.27.2,14.28,8,.38,3,.52,5.91-1.44,8.41C42.33,20.57,40.25,17,38.06,19.1Z"/><path class="cls-13" d="M63.52,17.81C66.37,21.49,68,24.23,67.16,29c-.53,3.08-2,8.15.94,10.59s6,3.09,6.54,7.71c.65,5.24-3.79,9.49-2.91,15,.51,3.2,3.72,7.89,7,8.8,5.22,1.44,11.11-2.48,11.92-7.76.85-5.51-5-10.31-5.92-15.63a7.4,7.4,0,0,1,1.53-6.54c2.77-3.85,4.62-6,4.25-11C89.79,20.54,80,11.36,70.33,10.79c-2.61-.15-3.83,0-5.58,2.08C63.73,14.06,62.36,16.14,63.52,17.81Z"/><path class="cls-14" d="M42.62,93.77a65.21,65.21,0,0,0,16.21-.2c1.75-.2,5.22-1.19,6.34,0,.82.84.87,3.1.78,4.16-7.86.08-15.76,1.08-23.66.79A14.19,14.19,0,0,1,42.62,93.77Z"/><path class="cls-2" d="M49.94,93.37c0,1.81-.83,6.46.94,7.33,2,1,7.42-.91,9.91-1,.22-2.28.35-7-2.36-7.5C56.14,91.76,52.64,92.72,49.94,93.37Z"/><path class="cls-1" d="M51.41,94.23c0,1.32-.6,4.69.68,5.33,1.44.71,5.39-.66,7.2-.74.16-1.66.25-5.09-1.72-5.45C55.91,93.06,53.37,93.76,51.41,94.23Z"/><polygon class="cls-15" points="58.76 87.91 54.17 85.93 49.93 88.6 50.39 83.62 46.55 80.42 51.43 79.31 53.28 74.67 55.84 78.97 60.83 79.3 57.53 83.06 58.76 87.91"/><path class="cls-5" d="M47.29,71.49c-2.05.4-3.81,1.89-5.57,3-3,1.89-6.41,2.85-9.21,5.07-.56.44-1.15.89-1.71,1.35a2.12,2.12,0,0,0-.19,3,61.19,61.19,0,0,1,5.65,7.32,15.78,15.78,0,0,0,3.42,3.44c.43-1.1,1.19-1.19,2-2.11-1.16-1.8-6.17-8.83-6.09-9.54.12-1,8.29-3.86,10.35-5.17C47.7,76.74,48.22,74.24,47.29,71.49Z"/><path class="cls-2" d="M36.11,93.39c.13-.9,1.74-1.8,2.38-2.38.47-.43,1.41-1.66,2-1.15a7.41,7.41,0,0,1,1,2.08c.22.51.33,1.05.52,1.56.54,1.45,1.34,2.2.9,3.81a5.6,5.6,0,0,1-3,3.49c-.57.31-1.51,1-2.19.76-1-.34-1-1-.66-1.79.09-.25.47-1.94,1-1.61.27.17.06,1.76,0,2,.72.22.82-.51,1.12-1a4.53,4.53,0,0,1,1.41-1.47c-.56-.92-2.12-1.46-2.93-2.21A6,6,0,0,1,36.11,93.39Z"/><path class="cls-5" d="M60.19,71.49c2.05.4,3.81,1.89,5.57,3,3,1.89,6.41,2.85,9.21,5.07.56.44,1.15.89,1.71,1.35a2.12,2.12,0,0,1,.19,3,61.2,61.2,0,0,0-5.65,7.32,15.79,15.79,0,0,1-3.42,3.44c-.43-1.1-1.19-1.19-2-2.11C67,90.78,72,83.76,71.9,83c-.12-1-8.29-3.86-10.35-5.17C59.78,76.74,59.26,74.24,60.19,71.49Z"/><path class="cls-2" d="M71.37,93.39c-.13-.9-1.74-1.8-2.38-2.38-.47-.43-1.41-1.66-2-1.15a7.41,7.41,0,0,0-1,2.08c-.22.51-.33,1.05-.52,1.56-.54,1.45-1.34,2.2-.9,3.81a5.6,5.6,0,0,0,3,3.49c.57.31,1.51,1,2.19.76,1-.34,1-1,.66-1.79-.09-.25-.47-1.94-1-1.61-.27.17-.06,1.76,0,2-.72.22-.82-.51-1.12-1a4.53,4.53,0,0,0-1.41-1.47c.56-.92,2.12-1.46,2.93-2.21A6,6,0,0,0,71.37,93.39Z"/></g></g></svg>